solid OpenSCAD_Model
  facet normal -1 0 0
    outer loop
      vertex -0.49 0.06 0.0149997
      vertex -0.49 0.295 0.018
      vertex -0.49 0.295 0.0149997
    endloop
  endfacet
  facet normal -1 -0 0
    outer loop
      vertex -0.49 0.295 0.018
      vertex -0.49 0.06 0.0149997
      vertex -0.49 0.06 0.018
    endloop
  endfacet
  facet normal -0 0 1
    outer loop
      vertex -0.49 0.295 0.018
      vertex -0.17 0.06 0.018
      vertex -0.17 0.295 0.018
    endloop
  endfacet
  facet normal 0 0 1
    outer loop
      vertex -0.17 0.06 0.018
      vertex -0.49 0.295 0.018
      vertex -0.49 0.06 0.018
    endloop
  endfacet
  facet normal 1 -0 0
    outer loop
      vertex -0.17 0.06 0.018
      vertex -0.17 0.295 0.0149997
      vertex -0.17 0.295 0.018
    endloop
  endfacet
  facet normal 1 0 0
    outer loop
      vertex -0.17 0.295 0.0149997
      vertex -0.17 0.06 0.018
      vertex -0.17 0.06 0.0149997
    endloop
  endfacet
  facet normal 0 1 -0
    outer loop
      vertex -0.17 0.295 0.0149997
      vertex -0.49 0.295 0.018
      vertex -0.17 0.295 0.018
    endloop
  endfacet
  facet normal 0 1 0
    outer loop
      vertex -0.49 0.295 0.018
      vertex -0.17 0.295 0.0149997
      vertex -0.49 0.295 0.0149997
    endloop
  endfacet
  facet normal 0 0 -1
    outer loop
      vertex -0.5 0.05 -0.015
      vertex 0.5 0.55 -0.015
      vertex 0.5 0.05 -0.015
    endloop
  endfacet
  facet normal -0 0 -1
    outer loop
      vertex 0.5 0.55 -0.015
      vertex -0.5 0.05 -0.015
      vertex -0.5 0.55 -0.015
    endloop
  endfacet
  facet normal 0 -1 0
    outer loop
      vertex -0.49 0.06 0.0149997
      vertex -0.17 0.06 0.018
      vertex -0.49 0.06 0.018
    endloop
  endfacet
  facet normal 0 -1 -0
    outer loop
      vertex -0.17 0.06 0.018
      vertex -0.49 0.06 0.0149997
      vertex -0.17 0.06 0.0149997
    endloop
  endfacet
  facet normal -1 0 0
    outer loop
      vertex -0.49 0.305 0.0149997
      vertex -0.49 0.54 0.018
      vertex -0.49 0.54 0.0149997
    endloop
  endfacet
  facet normal -1 -0 0
    outer loop
      vertex -0.49 0.54 0.018
      vertex -0.49 0.305 0.0149997
      vertex -0.49 0.305 0.018
    endloop
  endfacet
  facet normal -0 0 1
    outer loop
      vertex -0.49 0.54 0.018
      vertex -0.17 0.305 0.018
      vertex -0.17 0.54 0.018
    endloop
  endfacet
  facet normal 0 0 1
    outer loop
      vertex -0.17 0.305 0.018
      vertex -0.49 0.54 0.018
      vertex -0.49 0.305 0.018
    endloop
  endfacet
  facet normal 1 -0 0
    outer loop
      vertex -0.17 0.305 0.018
      vertex -0.17 0.54 0.0149997
      vertex -0.17 0.54 0.018
    endloop
  endfacet
  facet normal 1 0 0
    outer loop
      vertex -0.17 0.54 0.0149997
      vertex -0.17 0.305 0.018
      vertex -0.17 0.305 0.0149997
    endloop
  endfacet
  facet normal 0 1 -0
    outer loop
      vertex -0.17 0.54 0.0149997
      vertex -0.49 0.54 0.018
      vertex -0.17 0.54 0.018
    endloop
  endfacet
  facet normal 0 1 0
    outer loop
      vertex -0.49 0.54 0.018
      vertex -0.17 0.54 0.0149997
      vertex -0.49 0.54 0.0149997
    endloop
  endfacet
  facet normal 0 -1 0
    outer loop
      vertex -0.49 0.305 0.0149997
      vertex -0.17 0.305 0.018
      vertex -0.49 0.305 0.018
    endloop
  endfacet
  facet normal 0 -1 -0
    outer loop
      vertex -0.17 0.305 0.018
      vertex -0.49 0.305 0.0149997
      vertex -0.17 0.305 0.0149997
    endloop
  endfacet
  facet normal -1 0 0
    outer loop
      vertex -0.16 0.06 0.0149997
      vertex -0.16 0.295 0.018
      vertex -0.16 0.295 0.0149997
    endloop
  endfacet
  facet normal -1 -0 0
    outer loop
      vertex -0.16 0.295 0.018
      vertex -0.16 0.06 0.0149997
      vertex -0.16 0.06 0.018
    endloop
  endfacet
  facet normal -0 0 1
    outer loop
      vertex -0.16 0.295 0.018
      vertex 0.16 0.06 0.018
      vertex 0.16 0.295 0.018
    endloop
  endfacet
  facet normal 0 0 1
    outer loop
      vertex 0.16 0.06 0.018
      vertex -0.16 0.295 0.018
      vertex -0.16 0.06 0.018
    endloop
  endfacet
  facet normal 1 -0 0
    outer loop
      vertex 0.16 0.06 0.018
      vertex 0.16 0.295 0.0149997
      vertex 0.16 0.295 0.018
    endloop
  endfacet
  facet normal 1 0 0
    outer loop
      vertex 0.16 0.295 0.0149997
      vertex 0.16 0.06 0.018
      vertex 0.16 0.06 0.0149997
    endloop
  endfacet
  facet normal 0 -1 0
    outer loop
      vertex -0.16 0.06 0.0149997
      vertex 0.16 0.06 0.018
      vertex -0.16 0.06 0.018
    endloop
  endfacet
  facet normal 0 -1 -0
    outer loop
      vertex 0.16 0.06 0.018
      vertex -0.16 0.06 0.0149997
      vertex 0.16 0.06 0.0149997
    endloop
  endfacet
  facet normal 0 1 -0
    outer loop
      vertex 0.16 0.295 0.0149997
      vertex -0.16 0.295 0.018
      vertex 0.16 0.295 0.018
    endloop
  endfacet
  facet normal 0 1 0
    outer loop
      vertex -0.16 0.295 0.018
      vertex 0.16 0.295 0.0149997
      vertex -0.16 0.295 0.0149997
    endloop
  endfacet
  facet normal -1 0 0
    outer loop
      vertex -0.16 0.305 0.0149997
      vertex -0.16 0.54 0.018
      vertex -0.16 0.54 0.0149997
    endloop
  endfacet
  facet normal -1 -0 0
    outer loop
      vertex -0.16 0.54 0.018
      vertex -0.16 0.305 0.0149997
      vertex -0.16 0.305 0.018
    endloop
  endfacet
  facet normal -0 0 1
    outer loop
      vertex -0.16 0.54 0.018
      vertex 0.16 0.305 0.018
      vertex 0.16 0.54 0.018
    endloop
  endfacet
  facet normal 0 0 1
    outer loop
      vertex 0.16 0.305 0.018
      vertex -0.16 0.54 0.018
      vertex -0.16 0.305 0.018
    endloop
  endfacet
  facet normal 1 -0 0
    outer loop
      vertex 0.16 0.305 0.018
      vertex 0.16 0.54 0.0149997
      vertex 0.16 0.54 0.018
    endloop
  endfacet
  facet normal 1 0 0
    outer loop
      vertex 0.16 0.54 0.0149997
      vertex 0.16 0.305 0.018
      vertex 0.16 0.305 0.0149997
    endloop
  endfacet
  facet normal 0 1 -0
    outer loop
      vertex 0.16 0.54 0.0149997
      vertex -0.16 0.54 0.018
      vertex 0.16 0.54 0.018
    endloop
  endfacet
  facet normal 0 1 0
    outer loop
      vertex -0.16 0.54 0.018
      vertex 0.16 0.54 0.0149997
      vertex -0.16 0.54 0.0149997
    endloop
  endfacet
  facet normal 0 -1 0
    outer loop
      vertex -0.16 0.305 0.0149997
      vertex 0.16 0.305 0.018
      vertex -0.16 0.305 0.018
    endloop
  endfacet
  facet normal 0 -1 -0
    outer loop
      vertex 0.16 0.305 0.018
      vertex -0.16 0.305 0.0149997
      vertex 0.16 0.305 0.0149997
    endloop
  endfacet
  facet normal -1 0 0
    outer loop
      vertex 0.17 0.06 0.0149997
      vertex 0.17 0.295 0.018
      vertex 0.17 0.295 0.0149997
    endloop
  endfacet
  facet normal -1 -0 0
    outer loop
      vertex 0.17 0.295 0.018
      vertex 0.17 0.06 0.0149997
      vertex 0.17 0.06 0.018
    endloop
  endfacet
  facet normal -0 0 1
    outer loop
      vertex 0.17 0.295 0.018
      vertex 0.49 0.06 0.018
      vertex 0.49 0.295 0.018
    endloop
  endfacet
  facet normal 0 0 1
    outer loop
      vertex 0.49 0.06 0.018
      vertex 0.17 0.295 0.018
      vertex 0.17 0.06 0.018
    endloop
  endfacet
  facet normal 1 -0 0
    outer loop
      vertex 0.49 0.06 0.018
      vertex 0.49 0.295 0.0149997
      vertex 0.49 0.295 0.018
    endloop
  endfacet
  facet normal 1 0 0
    outer loop
      vertex 0.49 0.295 0.0149997
      vertex 0.49 0.06 0.018
      vertex 0.49 0.06 0.0149997
    endloop
  endfacet
  facet normal 0 1 -0
    outer loop
      vertex 0.49 0.295 0.0149997
      vertex 0.17 0.295 0.018
      vertex 0.49 0.295 0.018
    endloop
  endfacet
  facet normal 0 1 0
    outer loop
      vertex 0.17 0.295 0.018
      vertex 0.49 0.295 0.0149997
      vertex 0.17 0.295 0.0149997
    endloop
  endfacet
  facet normal 0 -1 0
    outer loop
      vertex 0.17 0.06 0.0149997
      vertex 0.49 0.06 0.018
      vertex 0.17 0.06 0.018
    endloop
  endfacet
  facet normal 0 -1 -0
    outer loop
      vertex 0.49 0.06 0.018
      vertex 0.17 0.06 0.0149997
      vertex 0.49 0.06 0.0149997
    endloop
  endfacet
  facet normal -1 0 0
    outer loop
      vertex 0.17 0.305 0.0149997
      vertex 0.17 0.54 0.018
      vertex 0.17 0.54 0.0149997
    endloop
  endfacet
  facet normal -1 -0 0
    outer loop
      vertex 0.17 0.54 0.018
      vertex 0.17 0.305 0.0149997
      vertex 0.17 0.305 0.018
    endloop
  endfacet
  facet normal -0 0 1
    outer loop
      vertex 0.17 0.54 0.018
      vertex 0.49 0.305 0.018
      vertex 0.49 0.54 0.018
    endloop
  endfacet
  facet normal 0 0 1
    outer loop
      vertex 0.49 0.305 0.018
      vertex 0.17 0.54 0.018
      vertex 0.17 0.305 0.018
    endloop
  endfacet
  facet normal 1 -0 0
    outer loop
      vertex 0.49 0.305 0.018
      vertex 0.49 0.54 0.0149997
      vertex 0.49 0.54 0.018
    endloop
  endfacet
  facet normal 1 0 0
    outer loop
      vertex 0.49 0.54 0.0149997
      vertex 0.49 0.305 0.018
      vertex 0.49 0.305 0.0149997
    endloop
  endfacet
  facet normal 0 1 -0
    outer loop
      vertex 0.49 0.54 0.0149997
      vertex 0.17 0.54 0.018
      vertex 0.49 0.54 0.018
    endloop
  endfacet
  facet normal 0 1 0
    outer loop
      vertex 0.17 0.54 0.018
      vertex 0.49 0.54 0.0149997
      vertex 0.17 0.54 0.0149997
    endloop
  endfacet
  facet normal 0 -1 0
    outer loop
      vertex 0.17 0.305 0.0149997
      vertex 0.49 0.305 0.018
      vertex 0.17 0.305 0.018
    endloop
  endfacet
  facet normal 0 -1 -0
    outer loop
      vertex 0.49 0.305 0.018
      vertex 0.17 0.305 0.0149997
      vertex 0.49 0.305 0.0149997
    endloop
  endfacet
  facet normal -1 0 0
    outer loop
      vertex -0.5 0.05 -0.015
      vertex -0.5 0.55 0.0149997
      vertex -0.5 0.55 -0.015
    endloop
  endfacet
  facet normal -1 -0 0
    outer loop
      vertex -0.5 0.55 0.0149997
      vertex -0.5 0.05 -0.015
      vertex -0.5 0.05 0.0149997
    endloop
  endfacet
  facet normal -0 0 1
    outer loop
      vertex -0.49 0.305 0.0149997
      vertex -0.17 0.295 0.0149997
      vertex -0.17 0.305 0.0149997
    endloop
  endfacet
  facet normal 0 0 1
    outer loop
      vertex -0.17 0.295 0.0149997
      vertex -0.49 0.305 0.0149997
      vertex -0.49 0.295 0.0149997
    endloop
  endfacet
  facet normal -0 0 1
    outer loop
      vertex -0.16 0.305 0.0149997
      vertex 0.16 0.295 0.0149997
      vertex 0.16 0.305 0.0149997
    endloop
  endfacet
  facet normal 0 0 1
    outer loop
      vertex 0.16 0.295 0.0149997
      vertex -0.16 0.305 0.0149997
      vertex -0.16 0.295 0.0149997
    endloop
  endfacet
  facet normal -0 0 1
    outer loop
      vertex 0.17 0.305 0.0149997
      vertex 0.49 0.295 0.0149997
      vertex 0.49 0.305 0.0149997
    endloop
  endfacet
  facet normal 0 0 1
    outer loop
      vertex 0.49 0.295 0.0149997
      vertex 0.17 0.305 0.0149997
      vertex 0.17 0.295 0.0149997
    endloop
  endfacet
  facet normal 0 0 1
    outer loop
      vertex 0.49 0.305 0.0149997
      vertex 0.5 0.55 0.0149997
      vertex 0.49 0.54 0.0149997
    endloop
  endfacet
  facet normal 0 0 1
    outer loop
      vertex 0.5 0.55 0.0149997
      vertex 0.17 0.54 0.0149997
      vertex 0.49 0.54 0.0149997
    endloop
  endfacet
  facet normal 0 0 1
    outer loop
      vertex 0.16 0.305 0.0149997
      vertex 0.17 0.305 0.0149997
      vertex 0.17 0.54 0.0149997
    endloop
  endfacet
  facet normal 0 0 1
    outer loop
      vertex 0.17 0.305 0.0149997
      vertex 0.16 0.305 0.0149997
      vertex 0.17 0.295 0.0149997
    endloop
  endfacet
  facet normal 0 0 1
    outer loop
      vertex 0.16 0.305 0.0149997
      vertex 0.17 0.54 0.0149997
      vertex 0.16 0.54 0.0149997
    endloop
  endfacet
  facet normal 0 0 1
    outer loop
      vertex 0.5 0.55 0.0149997
      vertex 0.16 0.54 0.0149997
      vertex 0.17 0.54 0.0149997
    endloop
  endfacet
  facet normal 0 0 1
    outer loop
      vertex 0.5 0.55 0.0149997
      vertex -0.16 0.54 0.0149997
      vertex 0.16 0.54 0.0149997
    endloop
  endfacet
  facet normal 0 0 1
    outer loop
      vertex -0.17 0.305 0.0149997
      vertex -0.16 0.305 0.0149997
      vertex -0.16 0.54 0.0149997
    endloop
  endfacet
  facet normal 0 0 1
    outer loop
      vertex -0.16 0.305 0.0149997
      vertex -0.17 0.305 0.0149997
      vertex -0.16 0.295 0.0149997
    endloop
  endfacet
  facet normal 0 0 1
    outer loop
      vertex -0.17 0.305 0.0149997
      vertex -0.16 0.54 0.0149997
      vertex -0.17 0.54 0.0149997
    endloop
  endfacet
  facet normal -0 0 1
    outer loop
      vertex -0.5 0.55 0.0149997
      vertex -0.16 0.54 0.0149997
      vertex 0.5 0.55 0.0149997
    endloop
  endfacet
  facet normal 0 0 1
    outer loop
      vertex -0.16 0.54 0.0149997
      vertex -0.5 0.55 0.0149997
      vertex -0.17 0.54 0.0149997
    endloop
  endfacet
  facet normal 0 0 1
    outer loop
      vertex -0.5 0.55 0.0149997
      vertex -0.49 0.305 0.0149997
      vertex -0.49 0.54 0.0149997
    endloop
  endfacet
  facet normal 0 0 1
    outer loop
      vertex -0.49 0.305 0.0149997
      vertex -0.5 0.55 0.0149997
      vertex -0.49 0.295 0.0149997
    endloop
  endfacet
  facet normal 0 0 1
    outer loop
      vertex -0.5 0.05 0.0149997
      vertex -0.49 0.295 0.0149997
      vertex -0.5 0.55 0.0149997
    endloop
  endfacet
  facet normal 0 0 1
    outer loop
      vertex -0.17 0.54 0.0149997
      vertex -0.5 0.55 0.0149997
      vertex -0.49 0.54 0.0149997
    endloop
  endfacet
  facet normal 0 0 1
    outer loop
      vertex 0.5 0.55 0.0149997
      vertex 0.49 0.305 0.0149997
      vertex 0.5 0.05 0.0149997
    endloop
  endfacet
  facet normal -0 0 1
    outer loop
      vertex 0.49 0.295 0.0149997
      vertex 0.5 0.05 0.0149997
      vertex 0.49 0.305 0.0149997
    endloop
  endfacet
  facet normal -0 0 1
    outer loop
      vertex 0.49 0.06 0.0149997
      vertex 0.5 0.05 0.0149997
      vertex 0.49 0.295 0.0149997
    endloop
  endfacet
  facet normal -0 0 1
    outer loop
      vertex 0.17 0.06 0.0149997
      vertex 0.5 0.05 0.0149997
      vertex 0.49 0.06 0.0149997
    endloop
  endfacet
  facet normal 0 0 1
    outer loop
      vertex 0.16 0.295 0.0149997
      vertex 0.17 0.295 0.0149997
      vertex 0.16 0.305 0.0149997
    endloop
  endfacet
  facet normal 0 0 1
    outer loop
      vertex 0.17 0.295 0.0149997
      vertex 0.16 0.295 0.0149997
      vertex 0.17 0.06 0.0149997
    endloop
  endfacet
  facet normal 0 0 1
    outer loop
      vertex 0.16 0.06 0.0149997
      vertex 0.17 0.06 0.0149997
      vertex 0.16 0.295 0.0149997
    endloop
  endfacet
  facet normal -0 0 1
    outer loop
      vertex 0.16 0.06 0.0149997
      vertex 0.5 0.05 0.0149997
      vertex 0.17 0.06 0.0149997
    endloop
  endfacet
  facet normal -0 0 1
    outer loop
      vertex -0.16 0.06 0.0149997
      vertex 0.5 0.05 0.0149997
      vertex 0.16 0.06 0.0149997
    endloop
  endfacet
  facet normal 0 0 1
    outer loop
      vertex -0.17 0.295 0.0149997
      vertex -0.16 0.295 0.0149997
      vertex -0.17 0.305 0.0149997
    endloop
  endfacet
  facet normal 0 0 1
    outer loop
      vertex -0.16 0.295 0.0149997
      vertex -0.17 0.295 0.0149997
      vertex -0.16 0.06 0.0149997
    endloop
  endfacet
  facet normal 0 0 1
    outer loop
      vertex -0.17 0.06 0.0149997
      vertex -0.16 0.06 0.0149997
      vertex -0.17 0.295 0.0149997
    endloop
  endfacet
  facet normal 0 0 1
    outer loop
      vertex -0.5 0.05 0.0149997
      vertex -0.16 0.06 0.0149997
      vertex -0.17 0.06 0.0149997
    endloop
  endfacet
  facet normal 0 0 1
    outer loop
      vertex -0.5 0.05 0.0149997
      vertex -0.17 0.06 0.0149997
      vertex -0.49 0.06 0.0149997
    endloop
  endfacet
  facet normal 0 0 1
    outer loop
      vertex -0.16 0.06 0.0149997
      vertex -0.5 0.05 0.0149997
      vertex 0.5 0.05 0.0149997
    endloop
  endfacet
  facet normal 0 0 1
    outer loop
      vertex -0.49 0.295 0.0149997
      vertex -0.5 0.05 0.0149997
      vertex -0.49 0.06 0.0149997
    endloop
  endfacet
  facet normal 1 -0 0
    outer loop
      vertex 0.5 0.05 0.0149997
      vertex 0.5 0.55 -0.015
      vertex 0.5 0.55 0.0149997
    endloop
  endfacet
  facet normal 1 0 0
    outer loop
      vertex 0.5 0.55 -0.015
      vertex 0.5 0.05 0.0149997
      vertex 0.5 0.05 -0.015
    endloop
  endfacet
  facet normal 0 -1 0
    outer loop
      vertex -0.5 0.05 0.0149997
      vertex -0.0499992 0.05 0.00999928
      vertex 0.5 0.05 0.0149997
    endloop
  endfacet
  facet normal 0 -1 0
    outer loop
      vertex -0.5 0.05 0.0149997
      vertex -0.0499992 0.05 -0.00999928
      vertex -0.0499992 0.05 0.00999928
    endloop
  endfacet
  facet normal 0 -1 -0
    outer loop
      vertex -0.0499992 0.05 -0.00999928
      vertex -0.5 0.05 -0.015
      vertex 0.0499992 0.05 -0.00999928
    endloop
  endfacet
  facet normal 0 -1 0
    outer loop
      vertex -0.5 0.05 -0.015
      vertex -0.0499992 0.05 -0.00999928
      vertex -0.5 0.05 0.0149997
    endloop
  endfacet
  facet normal 0 -1 0
    outer loop
      vertex 0.0499992 0.05 0.00999928
      vertex 0.5 0.05 0.0149997
      vertex -0.0499992 0.05 0.00999928
    endloop
  endfacet
  facet normal 0 -1 0
    outer loop
      vertex 0.0499992 0.05 -0.00999928
      vertex 0.5 0.05 0.0149997
      vertex 0.0499992 0.05 0.00999928
    endloop
  endfacet
  facet normal 0 -1 0
    outer loop
      vertex 0.0499992 0.05 -0.00999928
      vertex 0.5 0.05 -0.015
      vertex 0.5 0.05 0.0149997
    endloop
  endfacet
  facet normal 0 -1 0
    outer loop
      vertex 0.5 0.05 -0.015
      vertex 0.0499992 0.05 -0.00999928
      vertex -0.5 0.05 -0.015
    endloop
  endfacet
  facet normal 0 1 -0
    outer loop
      vertex 0.2 0.55 -0.0100008
      vertex -0.200001 0.55 0.00999962
      vertex 0.2 0.55 0.00999962
    endloop
  endfacet
  facet normal 0 1 0
    outer loop
      vertex -0.200001 0.55 0.00999962
      vertex 0.2 0.55 -0.0100008
      vertex -0.200001 0.55 -0.0100008
    endloop
  endfacet
  facet normal 0 1 0
    outer loop
      vertex 0.2 0.55 0.00999962
      vertex 0.5 0.55 0.0149997
      vertex 0.299999 0.55 0.00999962
    endloop
  endfacet
  facet normal 0 1 0
    outer loop
      vertex 0.5 0.55 0.0149997
      vertex 0.299999 0.55 -0.0100008
      vertex 0.299999 0.55 0.00999962
    endloop
  endfacet
  facet normal 0 1 0
    outer loop
      vertex 0.5 0.55 -0.015
      vertex 0.2 0.55 -0.0100008
      vertex 0.299999 0.55 -0.0100008
    endloop
  endfacet
  facet normal 0 1 0
    outer loop
      vertex 0.2 0.55 -0.0100008
      vertex 0.5 0.55 -0.015
      vertex -0.200001 0.55 -0.0100008
    endloop
  endfacet
  facet normal 0 1 0
    outer loop
      vertex -0.5 0.55 -0.015
      vertex -0.200001 0.55 -0.0100008
      vertex 0.5 0.55 -0.015
    endloop
  endfacet
  facet normal 0 1 -0
    outer loop
      vertex 0.5 0.55 -0.015
      vertex 0.299999 0.55 -0.0100008
      vertex 0.5 0.55 0.0149997
    endloop
  endfacet
  facet normal 0 1 0
    outer loop
      vertex 0.5 0.55 0.0149997
      vertex 0.2 0.55 0.00999962
      vertex -0.5 0.55 0.0149997
    endloop
  endfacet
  facet normal 0 1 -0
    outer loop
      vertex -0.200001 0.55 0.00999962
      vertex -0.5 0.55 0.0149997
      vertex 0.2 0.55 0.00999962
    endloop
  endfacet
  facet normal 0 1 -0
    outer loop
      vertex -0.3 0.55 0.00999962
      vertex -0.5 0.55 0.0149997
      vertex -0.200001 0.55 0.00999962
    endloop
  endfacet
  facet normal 0 1 -0
    outer loop
      vertex -0.3 0.55 -0.0100008
      vertex -0.5 0.55 0.0149997
      vertex -0.3 0.55 0.00999962
    endloop
  endfacet
  facet normal 0 1 0
    outer loop
      vertex -0.3 0.55 -0.0100008
      vertex -0.5 0.55 -0.015
      vertex -0.5 0.55 0.0149997
    endloop
  endfacet
  facet normal 0 1 0
    outer loop
      vertex -0.200001 0.55 -0.0100008
      vertex -0.5 0.55 -0.015
      vertex -0.3 0.55 -0.0100008
    endloop
  endfacet
  facet normal -1 0 0
    outer loop
      vertex -0.49 0.59 0.0149997
      vertex -0.49 0.825 0.018
      vertex -0.49 0.825 0.0149997
    endloop
  endfacet
  facet normal -1 -0 0
    outer loop
      vertex -0.49 0.825 0.018
      vertex -0.49 0.59 0.0149997
      vertex -0.49 0.59 0.018
    endloop
  endfacet
  facet normal -0 0 1
    outer loop
      vertex -0.49 0.825 0.018
      vertex -0.17 0.59 0.018
      vertex -0.17 0.825 0.018
    endloop
  endfacet
  facet normal 0 0 1
    outer loop
      vertex -0.17 0.59 0.018
      vertex -0.49 0.825 0.018
      vertex -0.49 0.59 0.018
    endloop
  endfacet
  facet normal 1 -0 0
    outer loop
      vertex -0.17 0.59 0.018
      vertex -0.17 0.825 0.0149997
      vertex -0.17 0.825 0.018
    endloop
  endfacet
  facet normal 1 0 0
    outer loop
      vertex -0.17 0.825 0.0149997
      vertex -0.17 0.59 0.018
      vertex -0.17 0.59 0.0149997
    endloop
  endfacet
  facet normal 0 1 -0
    outer loop
      vertex -0.17 0.825 0.0149997
      vertex -0.49 0.825 0.018
      vertex -0.17 0.825 0.018
    endloop
  endfacet
  facet normal 0 1 0
    outer loop
      vertex -0.49 0.825 0.018
      vertex -0.17 0.825 0.0149997
      vertex -0.49 0.825 0.0149997
    endloop
  endfacet
  facet normal 0 0 -1
    outer loop
      vertex -0.5 0.58 -0.015
      vertex 0.5 1.08 -0.015
      vertex 0.5 0.58 -0.015
    endloop
  endfacet
  facet normal -0 0 -1
    outer loop
      vertex 0.5 1.08 -0.015
      vertex -0.5 0.58 -0.015
      vertex -0.5 1.08 -0.015
    endloop
  endfacet
  facet normal 0 -1 0
    outer loop
      vertex -0.49 0.59 0.0149997
      vertex -0.17 0.59 0.018
      vertex -0.49 0.59 0.018
    endloop
  endfacet
  facet normal 0 -1 -0
    outer loop
      vertex -0.17 0.59 0.018
      vertex -0.49 0.59 0.0149997
      vertex -0.17 0.59 0.0149997
    endloop
  endfacet
  facet normal -1 0 0
    outer loop
      vertex -0.49 0.835 0.0149997
      vertex -0.49 1.07 0.018
      vertex -0.49 1.07 0.0149997
    endloop
  endfacet
  facet normal -1 -0 0
    outer loop
      vertex -0.49 1.07 0.018
      vertex -0.49 0.835 0.0149997
      vertex -0.49 0.835 0.018
    endloop
  endfacet
  facet normal -0 0 1
    outer loop
      vertex -0.49 1.07 0.018
      vertex -0.17 0.835 0.018
      vertex -0.17 1.07 0.018
    endloop
  endfacet
  facet normal 0 0 1
    outer loop
      vertex -0.17 0.835 0.018
      vertex -0.49 1.07 0.018
      vertex -0.49 0.835 0.018
    endloop
  endfacet
  facet normal 1 -0 0
    outer loop
      vertex -0.17 0.835 0.018
      vertex -0.17 1.07 0.0149997
      vertex -0.17 1.07 0.018
    endloop
  endfacet
  facet normal 1 0 0
    outer loop
      vertex -0.17 1.07 0.0149997
      vertex -0.17 0.835 0.018
      vertex -0.17 0.835 0.0149997
    endloop
  endfacet
  facet normal 0 1 -0
    outer loop
      vertex -0.17 1.07 0.0149997
      vertex -0.49 1.07 0.018
      vertex -0.17 1.07 0.018
    endloop
  endfacet
  facet normal 0 1 0
    outer loop
      vertex -0.49 1.07 0.018
      vertex -0.17 1.07 0.0149997
      vertex -0.49 1.07 0.0149997
    endloop
  endfacet
  facet normal 0 -1 0
    outer loop
      vertex -0.49 0.835 0.0149997
      vertex -0.17 0.835 0.018
      vertex -0.49 0.835 0.018
    endloop
  endfacet
  facet normal 0 -1 -0
    outer loop
      vertex -0.17 0.835 0.018
      vertex -0.49 0.835 0.0149997
      vertex -0.17 0.835 0.0149997
    endloop
  endfacet
  facet normal -1 0 0
    outer loop
      vertex -0.16 0.59 0.0149997
      vertex -0.16 0.825 0.018
      vertex -0.16 0.825 0.0149997
    endloop
  endfacet
  facet normal -1 -0 0
    outer loop
      vertex -0.16 0.825 0.018
      vertex -0.16 0.59 0.0149997
      vertex -0.16 0.59 0.018
    endloop
  endfacet
  facet normal -0 0 1
    outer loop
      vertex -0.16 0.825 0.018
      vertex 0.16 0.59 0.018
      vertex 0.16 0.825 0.018
    endloop
  endfacet
  facet normal 0 0 1
    outer loop
      vertex 0.16 0.59 0.018
      vertex -0.16 0.825 0.018
      vertex -0.16 0.59 0.018
    endloop
  endfacet
  facet normal 1 -0 0
    outer loop
      vertex 0.16 0.59 0.018
      vertex 0.16 0.825 0.0149997
      vertex 0.16 0.825 0.018
    endloop
  endfacet
  facet normal 1 0 0
    outer loop
      vertex 0.16 0.825 0.0149997
      vertex 0.16 0.59 0.018
      vertex 0.16 0.59 0.0149997
    endloop
  endfacet
  facet normal 0 -1 0
    outer loop
      vertex -0.16 0.59 0.0149997
      vertex 0.16 0.59 0.018
      vertex -0.16 0.59 0.018
    endloop
  endfacet
  facet normal 0 -1 -0
    outer loop
      vertex 0.16 0.59 0.018
      vertex -0.16 0.59 0.0149997
      vertex 0.16 0.59 0.0149997
    endloop
  endfacet
  facet normal 0 1 -0
    outer loop
      vertex 0.16 0.825 0.0149997
      vertex -0.16 0.825 0.018
      vertex 0.16 0.825 0.018
    endloop
  endfacet
  facet normal 0 1 0
    outer loop
      vertex -0.16 0.825 0.018
      vertex 0.16 0.825 0.0149997
      vertex -0.16 0.825 0.0149997
    endloop
  endfacet
  facet normal -1 0 0
    outer loop
      vertex -0.16 0.835 0.0149997
      vertex -0.16 1.07 0.018
      vertex -0.16 1.07 0.0149997
    endloop
  endfacet
  facet normal -1 -0 0
    outer loop
      vertex -0.16 1.07 0.018
      vertex -0.16 0.835 0.0149997
      vertex -0.16 0.835 0.018
    endloop
  endfacet
  facet normal -0 0 1
    outer loop
      vertex -0.16 1.07 0.018
      vertex 0.16 0.835 0.018
      vertex 0.16 1.07 0.018
    endloop
  endfacet
  facet normal 0 0 1
    outer loop
      vertex 0.16 0.835 0.018
      vertex -0.16 1.07 0.018
      vertex -0.16 0.835 0.018
    endloop
  endfacet
  facet normal 1 -0 0
    outer loop
      vertex 0.16 0.835 0.018
      vertex 0.16 1.07 0.0149997
      vertex 0.16 1.07 0.018
    endloop
  endfacet
  facet normal 1 0 0
    outer loop
      vertex 0.16 1.07 0.0149997
      vertex 0.16 0.835 0.018
      vertex 0.16 0.835 0.0149997
    endloop
  endfacet
  facet normal 0 1 -0
    outer loop
      vertex 0.16 1.07 0.0149997
      vertex -0.16 1.07 0.018
      vertex 0.16 1.07 0.018
    endloop
  endfacet
  facet normal 0 1 0
    outer loop
      vertex -0.16 1.07 0.018
      vertex 0.16 1.07 0.0149997
      vertex -0.16 1.07 0.0149997
    endloop
  endfacet
  facet normal 0 -1 0
    outer loop
      vertex -0.16 0.835 0.0149997
      vertex 0.16 0.835 0.018
      vertex -0.16 0.835 0.018
    endloop
  endfacet
  facet normal 0 -1 -0
    outer loop
      vertex 0.16 0.835 0.018
      vertex -0.16 0.835 0.0149997
      vertex 0.16 0.835 0.0149997
    endloop
  endfacet
  facet normal -1 0 0
    outer loop
      vertex 0.17 0.59 0.0149997
      vertex 0.17 0.825 0.018
      vertex 0.17 0.825 0.0149997
    endloop
  endfacet
  facet normal -1 -0 0
    outer loop
      vertex 0.17 0.825 0.018
      vertex 0.17 0.59 0.0149997
      vertex 0.17 0.59 0.018
    endloop
  endfacet
  facet normal -0 0 1
    outer loop
      vertex 0.17 0.825 0.018
      vertex 0.49 0.59 0.018
      vertex 0.49 0.825 0.018
    endloop
  endfacet
  facet normal 0 0 1
    outer loop
      vertex 0.49 0.59 0.018
      vertex 0.17 0.825 0.018
      vertex 0.17 0.59 0.018
    endloop
  endfacet
  facet normal 1 -0 0
    outer loop
      vertex 0.49 0.59 0.018
      vertex 0.49 0.825 0.0149997
      vertex 0.49 0.825 0.018
    endloop
  endfacet
  facet normal 1 0 0
    outer loop
      vertex 0.49 0.825 0.0149997
      vertex 0.49 0.59 0.018
      vertex 0.49 0.59 0.0149997
    endloop
  endfacet
  facet normal 0 1 -0
    outer loop
      vertex 0.49 0.825 0.0149997
      vertex 0.17 0.825 0.018
      vertex 0.49 0.825 0.018
    endloop
  endfacet
  facet normal 0 1 0
    outer loop
      vertex 0.17 0.825 0.018
      vertex 0.49 0.825 0.0149997
      vertex 0.17 0.825 0.0149997
    endloop
  endfacet
  facet normal 0 -1 0
    outer loop
      vertex 0.17 0.59 0.0149997
      vertex 0.49 0.59 0.018
      vertex 0.17 0.59 0.018
    endloop
  endfacet
  facet normal 0 -1 -0
    outer loop
      vertex 0.49 0.59 0.018
      vertex 0.17 0.59 0.0149997
      vertex 0.49 0.59 0.0149997
    endloop
  endfacet
  facet normal -1 0 0
    outer loop
      vertex 0.17 0.835 0.0149997
      vertex 0.17 1.07 0.018
      vertex 0.17 1.07 0.0149997
    endloop
  endfacet
  facet normal -1 -0 0
    outer loop
      vertex 0.17 1.07 0.018
      vertex 0.17 0.835 0.0149997
      vertex 0.17 0.835 0.018
    endloop
  endfacet
  facet normal -0 0 1
    outer loop
      vertex 0.17 1.07 0.018
      vertex 0.49 0.835 0.018
      vertex 0.49 1.07 0.018
    endloop
  endfacet
  facet normal 0 0 1
    outer loop
      vertex 0.49 0.835 0.018
      vertex 0.17 1.07 0.018
      vertex 0.17 0.835 0.018
    endloop
  endfacet
  facet normal 1 -0 0
    outer loop
      vertex 0.49 0.835 0.018
      vertex 0.49 1.07 0.0149997
      vertex 0.49 1.07 0.018
    endloop
  endfacet
  facet normal 1 0 0
    outer loop
      vertex 0.49 1.07 0.0149997
      vertex 0.49 0.835 0.018
      vertex 0.49 0.835 0.0149997
    endloop
  endfacet
  facet normal 0 1 -0
    outer loop
      vertex 0.49 1.07 0.0149997
      vertex 0.17 1.07 0.018
      vertex 0.49 1.07 0.018
    endloop
  endfacet
  facet normal 0 1 0
    outer loop
      vertex 0.17 1.07 0.018
      vertex 0.49 1.07 0.0149997
      vertex 0.17 1.07 0.0149997
    endloop
  endfacet
  facet normal 0 -1 0
    outer loop
      vertex 0.17 0.835 0.0149997
      vertex 0.49 0.835 0.018
      vertex 0.17 0.835 0.018
    endloop
  endfacet
  facet normal 0 -1 -0
    outer loop
      vertex 0.49 0.835 0.018
      vertex 0.17 0.835 0.0149997
      vertex 0.49 0.835 0.0149997
    endloop
  endfacet
  facet normal -1 0 0
    outer loop
      vertex -0.5 0.58 -0.015
      vertex -0.5 1.08 0.0149997
      vertex -0.5 1.08 -0.015
    endloop
  endfacet
  facet normal -1 -0 0
    outer loop
      vertex -0.5 1.08 0.0149997
      vertex -0.5 0.58 -0.015
      vertex -0.5 0.58 0.0149997
    endloop
  endfacet
  facet normal -0 0 1
    outer loop
      vertex -0.49 0.835 0.0149997
      vertex -0.17 0.825 0.0149997
      vertex -0.17 0.835 0.0149997
    endloop
  endfacet
  facet normal 0 0 1
    outer loop
      vertex -0.17 0.825 0.0149997
      vertex -0.49 0.835 0.0149997
      vertex -0.49 0.825 0.0149997
    endloop
  endfacet
  facet normal -0 0 1
    outer loop
      vertex -0.16 0.835 0.0149997
      vertex 0.16 0.825 0.0149997
      vertex 0.16 0.835 0.0149997
    endloop
  endfacet
  facet normal 0 0 1
    outer loop
      vertex 0.16 0.825 0.0149997
      vertex -0.16 0.835 0.0149997
      vertex -0.16 0.825 0.0149997
    endloop
  endfacet
  facet normal -0 0 1
    outer loop
      vertex 0.17 0.835 0.0149997
      vertex 0.49 0.825 0.0149997
      vertex 0.49 0.835 0.0149997
    endloop
  endfacet
  facet normal 0 0 1
    outer loop
      vertex 0.49 0.825 0.0149997
      vertex 0.17 0.835 0.0149997
      vertex 0.17 0.825 0.0149997
    endloop
  endfacet
  facet normal 0 0 1
    outer loop
      vertex 0.49 0.835 0.0149997
      vertex 0.5 1.08 0.0149997
      vertex 0.49 1.07 0.0149997
    endloop
  endfacet
  facet normal 0 0 1
    outer loop
      vertex 0.5 1.08 0.0149997
      vertex 0.17 1.07 0.0149997
      vertex 0.49 1.07 0.0149997
    endloop
  endfacet
  facet normal 0 0 1
    outer loop
      vertex 0.16 0.835 0.0149997
      vertex 0.17 0.835 0.0149997
      vertex 0.17 1.07 0.0149997
    endloop
  endfacet
  facet normal 0 0 1
    outer loop
      vertex 0.17 0.835 0.0149997
      vertex 0.16 0.835 0.0149997
      vertex 0.17 0.825 0.0149997
    endloop
  endfacet
  facet normal 0 0 1
    outer loop
      vertex 0.16 0.835 0.0149997
      vertex 0.17 1.07 0.0149997
      vertex 0.16 1.07 0.0149997
    endloop
  endfacet
  facet normal 0 0 1
    outer loop
      vertex 0.5 1.08 0.0149997
      vertex 0.16 1.07 0.0149997
      vertex 0.17 1.07 0.0149997
    endloop
  endfacet
  facet normal 0 0 1
    outer loop
      vertex 0.5 1.08 0.0149997
      vertex -0.16 1.07 0.0149997
      vertex 0.16 1.07 0.0149997
    endloop
  endfacet
  facet normal 0 0 1
    outer loop
      vertex -0.17 0.835 0.0149997
      vertex -0.16 0.835 0.0149997
      vertex -0.16 1.07 0.0149997
    endloop
  endfacet
  facet normal 0 0 1
    outer loop
      vertex -0.16 0.835 0.0149997
      vertex -0.17 0.835 0.0149997
      vertex -0.16 0.825 0.0149997
    endloop
  endfacet
  facet normal 0 0 1
    outer loop
      vertex -0.17 0.835 0.0149997
      vertex -0.16 1.07 0.0149997
      vertex -0.17 1.07 0.0149997
    endloop
  endfacet
  facet normal -0 0 1
    outer loop
      vertex -0.5 1.08 0.0149997
      vertex -0.16 1.07 0.0149997
      vertex 0.5 1.08 0.0149997
    endloop
  endfacet
  facet normal 0 0 1
    outer loop
      vertex -0.16 1.07 0.0149997
      vertex -0.5 1.08 0.0149997
      vertex -0.17 1.07 0.0149997
    endloop
  endfacet
  facet normal 0 0 1
    outer loop
      vertex -0.5 1.08 0.0149997
      vertex -0.49 0.835 0.0149997
      vertex -0.49 1.07 0.0149997
    endloop
  endfacet
  facet normal 0 0 1
    outer loop
      vertex -0.49 0.835 0.0149997
      vertex -0.5 1.08 0.0149997
      vertex -0.49 0.825 0.0149997
    endloop
  endfacet
  facet normal 0 0 1
    outer loop
      vertex -0.5 0.58 0.0149997
      vertex -0.49 0.825 0.0149997
      vertex -0.5 1.08 0.0149997
    endloop
  endfacet
  facet normal 0 0 1
    outer loop
      vertex -0.17 1.07 0.0149997
      vertex -0.5 1.08 0.0149997
      vertex -0.49 1.07 0.0149997
    endloop
  endfacet
  facet normal 0 0 1
    outer loop
      vertex 0.5 1.08 0.0149997
      vertex 0.49 0.835 0.0149997
      vertex 0.5 0.58 0.0149997
    endloop
  endfacet
  facet normal -0 0 1
    outer loop
      vertex 0.49 0.825 0.0149997
      vertex 0.5 0.58 0.0149997
      vertex 0.49 0.835 0.0149997
    endloop
  endfacet
  facet normal -0 0 1
    outer loop
      vertex 0.49 0.59 0.0149997
      vertex 0.5 0.58 0.0149997
      vertex 0.49 0.825 0.0149997
    endloop
  endfacet
  facet normal -0 0 1
    outer loop
      vertex 0.17 0.59 0.0149997
      vertex 0.5 0.58 0.0149997
      vertex 0.49 0.59 0.0149997
    endloop
  endfacet
  facet normal 0 0 1
    outer loop
      vertex 0.16 0.825 0.0149997
      vertex 0.17 0.825 0.0149997
      vertex 0.16 0.835 0.0149997
    endloop
  endfacet
  facet normal 0 0 1
    outer loop
      vertex 0.17 0.825 0.0149997
      vertex 0.16 0.825 0.0149997
      vertex 0.17 0.59 0.0149997
    endloop
  endfacet
  facet normal 0 0 1
    outer loop
      vertex 0.16 0.59 0.0149997
      vertex 0.17 0.59 0.0149997
      vertex 0.16 0.825 0.0149997
    endloop
  endfacet
  facet normal -0 0 1
    outer loop
      vertex 0.16 0.59 0.0149997
      vertex 0.5 0.58 0.0149997
      vertex 0.17 0.59 0.0149997
    endloop
  endfacet
  facet normal -0 0 1
    outer loop
      vertex -0.16 0.59 0.0149997
      vertex 0.5 0.58 0.0149997
      vertex 0.16 0.59 0.0149997
    endloop
  endfacet
  facet normal 0 0 1
    outer loop
      vertex -0.17 0.825 0.0149997
      vertex -0.16 0.825 0.0149997
      vertex -0.17 0.835 0.0149997
    endloop
  endfacet
  facet normal 0 0 1
    outer loop
      vertex -0.16 0.825 0.0149997
      vertex -0.17 0.825 0.0149997
      vertex -0.16 0.59 0.0149997
    endloop
  endfacet
  facet normal 0 0 1
    outer loop
      vertex -0.17 0.59 0.0149997
      vertex -0.16 0.59 0.0149997
      vertex -0.17 0.825 0.0149997
    endloop
  endfacet
  facet normal 0 0 1
    outer loop
      vertex -0.5 0.58 0.0149997
      vertex -0.16 0.59 0.0149997
      vertex -0.17 0.59 0.0149997
    endloop
  endfacet
  facet normal 0 0 1
    outer loop
      vertex -0.5 0.58 0.0149997
      vertex -0.17 0.59 0.0149997
      vertex -0.49 0.59 0.0149997
    endloop
  endfacet
  facet normal 0 0 1
    outer loop
      vertex -0.16 0.59 0.0149997
      vertex -0.5 0.58 0.0149997
      vertex 0.5 0.58 0.0149997
    endloop
  endfacet
  facet normal 0 0 1
    outer loop
      vertex -0.49 0.825 0.0149997
      vertex -0.5 0.58 0.0149997
      vertex -0.49 0.59 0.0149997
    endloop
  endfacet
  facet normal 1 -0 0
    outer loop
      vertex 0.5 0.58 0.0149997
      vertex 0.5 1.08 -0.015
      vertex 0.5 1.08 0.0149997
    endloop
  endfacet
  facet normal 1 0 0
    outer loop
      vertex 0.5 1.08 -0.015
      vertex 0.5 0.58 0.0149997
      vertex 0.5 0.58 -0.015
    endloop
  endfacet
  facet normal 0 1 -0
    outer loop
      vertex 0.2 1.08 -0.0100008
      vertex -0.200001 1.08 0.00999962
      vertex 0.2 1.08 0.00999962
    endloop
  endfacet
  facet normal 0 1 0
    outer loop
      vertex -0.200001 1.08 0.00999962
      vertex 0.2 1.08 -0.0100008
      vertex -0.200001 1.08 -0.0100008
    endloop
  endfacet
  facet normal 0 1 0
    outer loop
      vertex 0.2 1.08 0.00999962
      vertex 0.5 1.08 0.0149997
      vertex 0.299999 1.08 0.00999962
    endloop
  endfacet
  facet normal 0 1 0
    outer loop
      vertex 0.5 1.08 0.0149997
      vertex 0.299999 1.08 -0.0100008
      vertex 0.299999 1.08 0.00999962
    endloop
  endfacet
  facet normal 0 1 0
    outer loop
      vertex 0.5 1.08 -0.015
      vertex 0.2 1.08 -0.0100008
      vertex 0.299999 1.08 -0.0100008
    endloop
  endfacet
  facet normal 0 1 0
    outer loop
      vertex 0.2 1.08 -0.0100008
      vertex 0.5 1.08 -0.015
      vertex -0.200001 1.08 -0.0100008
    endloop
  endfacet
  facet normal 0 1 0
    outer loop
      vertex -0.5 1.08 -0.015
      vertex -0.200001 1.08 -0.0100008
      vertex 0.5 1.08 -0.015
    endloop
  endfacet
  facet normal 0 1 -0
    outer loop
      vertex 0.5 1.08 -0.015
      vertex 0.299999 1.08 -0.0100008
      vertex 0.5 1.08 0.0149997
    endloop
  endfacet
  facet normal 0 1 0
    outer loop
      vertex 0.5 1.08 0.0149997
      vertex 0.2 1.08 0.00999962
      vertex -0.5 1.08 0.0149997
    endloop
  endfacet
  facet normal 0 1 -0
    outer loop
      vertex -0.200001 1.08 0.00999962
      vertex -0.5 1.08 0.0149997
      vertex 0.2 1.08 0.00999962
    endloop
  endfacet
  facet normal 0 1 -0
    outer loop
      vertex -0.3 1.08 0.00999962
      vertex -0.5 1.08 0.0149997
      vertex -0.200001 1.08 0.00999962
    endloop
  endfacet
  facet normal 0 1 -0
    outer loop
      vertex -0.3 1.08 -0.0100008
      vertex -0.5 1.08 0.0149997
      vertex -0.3 1.08 0.00999962
    endloop
  endfacet
  facet normal 0 1 0
    outer loop
      vertex -0.3 1.08 -0.0100008
      vertex -0.5 1.08 -0.015
      vertex -0.5 1.08 0.0149997
    endloop
  endfacet
  facet normal 0 1 0
    outer loop
      vertex -0.200001 1.08 -0.0100008
      vertex -0.5 1.08 -0.015
      vertex -0.3 1.08 -0.0100008
    endloop
  endfacet
  facet normal 0 -1 0
    outer loop
      vertex -0.200001 0.58 -0.0100008
      vertex 0.2 0.58 0.00999962
      vertex -0.200001 0.58 0.00999962
    endloop
  endfacet
  facet normal 0 -1 -0
    outer loop
      vertex 0.2 0.58 0.00999962
      vertex -0.200001 0.58 -0.0100008
      vertex 0.2 0.58 -0.0100008
    endloop
  endfacet
  facet normal 0 -1 0
    outer loop
      vertex -0.200001 0.58 0.00999962
      vertex -0.5 0.58 0.0149997
      vertex -0.3 0.58 0.00999962
    endloop
  endfacet
  facet normal 0 -1 0
    outer loop
      vertex -0.5 0.58 0.0149997
      vertex -0.3 0.58 -0.0100008
      vertex -0.3 0.58 0.00999962
    endloop
  endfacet
  facet normal 0 -1 0
    outer loop
      vertex -0.5 0.58 -0.015
      vertex -0.200001 0.58 -0.0100008
      vertex -0.3 0.58 -0.0100008
    endloop
  endfacet
  facet normal 0 -1 -0
    outer loop
      vertex -0.200001 0.58 -0.0100008
      vertex -0.5 0.58 -0.015
      vertex 0.2 0.58 -0.0100008
    endloop
  endfacet
  facet normal 0 -1 0
    outer loop
      vertex 0.5 0.58 -0.015
      vertex 0.2 0.58 -0.0100008
      vertex -0.5 0.58 -0.015
    endloop
  endfacet
  facet normal 0 -1 0
    outer loop
      vertex -0.5 0.58 -0.015
      vertex -0.3 0.58 -0.0100008
      vertex -0.5 0.58 0.0149997
    endloop
  endfacet
  facet normal 0 -1 0
    outer loop
      vertex -0.5 0.58 0.0149997
      vertex -0.200001 0.58 0.00999962
      vertex 0.5 0.58 0.0149997
    endloop
  endfacet
  facet normal 0 -1 0
    outer loop
      vertex 0.2 0.58 0.00999962
      vertex 0.5 0.58 0.0149997
      vertex -0.200001 0.58 0.00999962
    endloop
  endfacet
  facet normal 0 -1 0
    outer loop
      vertex 0.299999 0.58 0.00999962
      vertex 0.5 0.58 0.0149997
      vertex 0.2 0.58 0.00999962
    endloop
  endfacet
  facet normal 0 -1 0
    outer loop
      vertex 0.299999 0.58 -0.0100008
      vertex 0.5 0.58 0.0149997
      vertex 0.299999 0.58 0.00999962
    endloop
  endfacet
  facet normal 0 -1 0
    outer loop
      vertex 0.299999 0.58 -0.0100008
      vertex 0.5 0.58 -0.015
      vertex 0.5 0.58 0.0149997
    endloop
  endfacet
  facet normal 0 -1 0
    outer loop
      vertex 0.2 0.58 -0.0100008
      vertex 0.5 0.58 -0.015
      vertex 0.299999 0.58 -0.0100008
    endloop
  endfacet
  facet normal -1 0 0
    outer loop
      vertex -0.49 1.12 0.0149997
      vertex -0.49 1.355 0.018
      vertex -0.49 1.355 0.0149997
    endloop
  endfacet
  facet normal -1 -0 0
    outer loop
      vertex -0.49 1.355 0.018
      vertex -0.49 1.12 0.0149997
      vertex -0.49 1.12 0.018
    endloop
  endfacet
  facet normal -0 0 1
    outer loop
      vertex -0.49 1.355 0.018
      vertex -0.17 1.12 0.018
      vertex -0.17 1.355 0.018
    endloop
  endfacet
  facet normal 0 0 1
    outer loop
      vertex -0.17 1.12 0.018
      vertex -0.49 1.355 0.018
      vertex -0.49 1.12 0.018
    endloop
  endfacet
  facet normal 1 -0 0
    outer loop
      vertex -0.17 1.12 0.018
      vertex -0.17 1.355 0.0149997
      vertex -0.17 1.355 0.018
    endloop
  endfacet
  facet normal 1 0 0
    outer loop
      vertex -0.17 1.355 0.0149997
      vertex -0.17 1.12 0.018
      vertex -0.17 1.12 0.0149997
    endloop
  endfacet
  facet normal 0 1 -0
    outer loop
      vertex -0.17 1.355 0.0149997
      vertex -0.49 1.355 0.018
      vertex -0.17 1.355 0.018
    endloop
  endfacet
  facet normal 0 1 0
    outer loop
      vertex -0.49 1.355 0.018
      vertex -0.17 1.355 0.0149997
      vertex -0.49 1.355 0.0149997
    endloop
  endfacet
  facet normal 0 0 -1
    outer loop
      vertex -0.5 1.11 -0.015
      vertex 0.5 1.61 -0.015
      vertex 0.5 1.11 -0.015
    endloop
  endfacet
  facet normal -0 0 -1
    outer loop
      vertex 0.5 1.61 -0.015
      vertex -0.5 1.11 -0.015
      vertex -0.5 1.61 -0.015
    endloop
  endfacet
  facet normal 0 -1 0
    outer loop
      vertex -0.49 1.12 0.0149997
      vertex -0.17 1.12 0.018
      vertex -0.49 1.12 0.018
    endloop
  endfacet
  facet normal 0 -1 -0
    outer loop
      vertex -0.17 1.12 0.018
      vertex -0.49 1.12 0.0149997
      vertex -0.17 1.12 0.0149997
    endloop
  endfacet
  facet normal -1 0 0
    outer loop
      vertex -0.49 1.365 0.0149997
      vertex -0.49 1.6 0.018
      vertex -0.49 1.6 0.0149997
    endloop
  endfacet
  facet normal -1 -0 0
    outer loop
      vertex -0.49 1.6 0.018
      vertex -0.49 1.365 0.0149997
      vertex -0.49 1.365 0.018
    endloop
  endfacet
  facet normal -0 0 1
    outer loop
      vertex -0.49 1.6 0.018
      vertex -0.17 1.365 0.018
      vertex -0.17 1.6 0.018
    endloop
  endfacet
  facet normal 0 0 1
    outer loop
      vertex -0.17 1.365 0.018
      vertex -0.49 1.6 0.018
      vertex -0.49 1.365 0.018
    endloop
  endfacet
  facet normal 1 -0 0
    outer loop
      vertex -0.17 1.365 0.018
      vertex -0.17 1.6 0.0149997
      vertex -0.17 1.6 0.018
    endloop
  endfacet
  facet normal 1 0 0
    outer loop
      vertex -0.17 1.6 0.0149997
      vertex -0.17 1.365 0.018
      vertex -0.17 1.365 0.0149997
    endloop
  endfacet
  facet normal 0 1 -0
    outer loop
      vertex -0.17 1.6 0.0149997
      vertex -0.49 1.6 0.018
      vertex -0.17 1.6 0.018
    endloop
  endfacet
  facet normal 0 1 0
    outer loop
      vertex -0.49 1.6 0.018
      vertex -0.17 1.6 0.0149997
      vertex -0.49 1.6 0.0149997
    endloop
  endfacet
  facet normal 0 -1 0
    outer loop
      vertex -0.49 1.365 0.0149997
      vertex -0.17 1.365 0.018
      vertex -0.49 1.365 0.018
    endloop
  endfacet
  facet normal 0 -1 -0
    outer loop
      vertex -0.17 1.365 0.018
      vertex -0.49 1.365 0.0149997
      vertex -0.17 1.365 0.0149997
    endloop
  endfacet
  facet normal -1 0 0
    outer loop
      vertex -0.16 1.12 0.0149997
      vertex -0.16 1.355 0.018
      vertex -0.16 1.355 0.0149997
    endloop
  endfacet
  facet normal -1 -0 0
    outer loop
      vertex -0.16 1.355 0.018
      vertex -0.16 1.12 0.0149997
      vertex -0.16 1.12 0.018
    endloop
  endfacet
  facet normal -0 0 1
    outer loop
      vertex -0.16 1.355 0.018
      vertex 0.16 1.12 0.018
      vertex 0.16 1.355 0.018
    endloop
  endfacet
  facet normal 0 0 1
    outer loop
      vertex 0.16 1.12 0.018
      vertex -0.16 1.355 0.018
      vertex -0.16 1.12 0.018
    endloop
  endfacet
  facet normal 1 -0 0
    outer loop
      vertex 0.16 1.12 0.018
      vertex 0.16 1.355 0.0149997
      vertex 0.16 1.355 0.018
    endloop
  endfacet
  facet normal 1 0 0
    outer loop
      vertex 0.16 1.355 0.0149997
      vertex 0.16 1.12 0.018
      vertex 0.16 1.12 0.0149997
    endloop
  endfacet
  facet normal 0 -1 0
    outer loop
      vertex -0.16 1.12 0.0149997
      vertex 0.16 1.12 0.018
      vertex -0.16 1.12 0.018
    endloop
  endfacet
  facet normal 0 -1 -0
    outer loop
      vertex 0.16 1.12 0.018
      vertex -0.16 1.12 0.0149997
      vertex 0.16 1.12 0.0149997
    endloop
  endfacet
  facet normal 0 1 -0
    outer loop
      vertex 0.16 1.355 0.0149997
      vertex -0.16 1.355 0.018
      vertex 0.16 1.355 0.018
    endloop
  endfacet
  facet normal 0 1 0
    outer loop
      vertex -0.16 1.355 0.018
      vertex 0.16 1.355 0.0149997
      vertex -0.16 1.355 0.0149997
    endloop
  endfacet
  facet normal -1 0 0
    outer loop
      vertex -0.16 1.365 0.0149997
      vertex -0.16 1.6 0.018
      vertex -0.16 1.6 0.0149997
    endloop
  endfacet
  facet normal -1 -0 0
    outer loop
      vertex -0.16 1.6 0.018
      vertex -0.16 1.365 0.0149997
      vertex -0.16 1.365 0.018
    endloop
  endfacet
  facet normal -0 0 1
    outer loop
      vertex -0.16 1.6 0.018
      vertex 0.16 1.365 0.018
      vertex 0.16 1.6 0.018
    endloop
  endfacet
  facet normal 0 0 1
    outer loop
      vertex 0.16 1.365 0.018
      vertex -0.16 1.6 0.018
      vertex -0.16 1.365 0.018
    endloop
  endfacet
  facet normal 1 -0 0
    outer loop
      vertex 0.16 1.365 0.018
      vertex 0.16 1.6 0.0149997
      vertex 0.16 1.6 0.018
    endloop
  endfacet
  facet normal 1 0 0
    outer loop
      vertex 0.16 1.6 0.0149997
      vertex 0.16 1.365 0.018
      vertex 0.16 1.365 0.0149997
    endloop
  endfacet
  facet normal 0 1 -0
    outer loop
      vertex 0.16 1.6 0.0149997
      vertex -0.16 1.6 0.018
      vertex 0.16 1.6 0.018
    endloop
  endfacet
  facet normal 0 1 0
    outer loop
      vertex -0.16 1.6 0.018
      vertex 0.16 1.6 0.0149997
      vertex -0.16 1.6 0.0149997
    endloop
  endfacet
  facet normal 0 -1 0
    outer loop
      vertex -0.16 1.365 0.0149997
      vertex 0.16 1.365 0.018
      vertex -0.16 1.365 0.018
    endloop
  endfacet
  facet normal 0 -1 -0
    outer loop
      vertex 0.16 1.365 0.018
      vertex -0.16 1.365 0.0149997
      vertex 0.16 1.365 0.0149997
    endloop
  endfacet
  facet normal -1 0 0
    outer loop
      vertex 0.17 1.12 0.0149997
      vertex 0.17 1.355 0.018
      vertex 0.17 1.355 0.0149997
    endloop
  endfacet
  facet normal -1 -0 0
    outer loop
      vertex 0.17 1.355 0.018
      vertex 0.17 1.12 0.0149997
      vertex 0.17 1.12 0.018
    endloop
  endfacet
  facet normal -0 0 1
    outer loop
      vertex 0.17 1.355 0.018
      vertex 0.49 1.12 0.018
      vertex 0.49 1.355 0.018
    endloop
  endfacet
  facet normal 0 0 1
    outer loop
      vertex 0.49 1.12 0.018
      vertex 0.17 1.355 0.018
      vertex 0.17 1.12 0.018
    endloop
  endfacet
  facet normal 1 -0 0
    outer loop
      vertex 0.49 1.12 0.018
      vertex 0.49 1.355 0.0149997
      vertex 0.49 1.355 0.018
    endloop
  endfacet
  facet normal 1 0 0
    outer loop
      vertex 0.49 1.355 0.0149997
      vertex 0.49 1.12 0.018
      vertex 0.49 1.12 0.0149997
    endloop
  endfacet
  facet normal 0 1 -0
    outer loop
      vertex 0.49 1.355 0.0149997
      vertex 0.17 1.355 0.018
      vertex 0.49 1.355 0.018
    endloop
  endfacet
  facet normal 0 1 0
    outer loop
      vertex 0.17 1.355 0.018
      vertex 0.49 1.355 0.0149997
      vertex 0.17 1.355 0.0149997
    endloop
  endfacet
  facet normal 0 -1 0
    outer loop
      vertex 0.17 1.12 0.0149997
      vertex 0.49 1.12 0.018
      vertex 0.17 1.12 0.018
    endloop
  endfacet
  facet normal 0 -1 -0
    outer loop
      vertex 0.49 1.12 0.018
      vertex 0.17 1.12 0.0149997
      vertex 0.49 1.12 0.0149997
    endloop
  endfacet
  facet normal -1 0 0
    outer loop
      vertex 0.17 1.365 0.0149997
      vertex 0.17 1.6 0.018
      vertex 0.17 1.6 0.0149997
    endloop
  endfacet
  facet normal -1 -0 0
    outer loop
      vertex 0.17 1.6 0.018
      vertex 0.17 1.365 0.0149997
      vertex 0.17 1.365 0.018
    endloop
  endfacet
  facet normal -0 0 1
    outer loop
      vertex 0.17 1.6 0.018
      vertex 0.49 1.365 0.018
      vertex 0.49 1.6 0.018
    endloop
  endfacet
  facet normal 0 0 1
    outer loop
      vertex 0.49 1.365 0.018
      vertex 0.17 1.6 0.018
      vertex 0.17 1.365 0.018
    endloop
  endfacet
  facet normal 1 -0 0
    outer loop
      vertex 0.49 1.365 0.018
      vertex 0.49 1.6 0.0149997
      vertex 0.49 1.6 0.018
    endloop
  endfacet
  facet normal 1 0 0
    outer loop
      vertex 0.49 1.6 0.0149997
      vertex 0.49 1.365 0.018
      vertex 0.49 1.365 0.0149997
    endloop
  endfacet
  facet normal 0 1 -0
    outer loop
      vertex 0.49 1.6 0.0149997
      vertex 0.17 1.6 0.018
      vertex 0.49 1.6 0.018
    endloop
  endfacet
  facet normal 0 1 0
    outer loop
      vertex 0.17 1.6 0.018
      vertex 0.49 1.6 0.0149997
      vertex 0.17 1.6 0.0149997
    endloop
  endfacet
  facet normal 0 -1 0
    outer loop
      vertex 0.17 1.365 0.0149997
      vertex 0.49 1.365 0.018
      vertex 0.17 1.365 0.018
    endloop
  endfacet
  facet normal 0 -1 -0
    outer loop
      vertex 0.49 1.365 0.018
      vertex 0.17 1.365 0.0149997
      vertex 0.49 1.365 0.0149997
    endloop
  endfacet
  facet normal -1 0 0
    outer loop
      vertex -0.5 1.11 -0.015
      vertex -0.5 1.61 0.0149997
      vertex -0.5 1.61 -0.015
    endloop
  endfacet
  facet normal -1 -0 0
    outer loop
      vertex -0.5 1.61 0.0149997
      vertex -0.5 1.11 -0.015
      vertex -0.5 1.11 0.0149997
    endloop
  endfacet
  facet normal -0 0 1
    outer loop
      vertex -0.49 1.365 0.0149997
      vertex -0.17 1.355 0.0149997
      vertex -0.17 1.365 0.0149997
    endloop
  endfacet
  facet normal 0 0 1
    outer loop
      vertex -0.17 1.355 0.0149997
      vertex -0.49 1.365 0.0149997
      vertex -0.49 1.355 0.0149997
    endloop
  endfacet
  facet normal -0 0 1
    outer loop
      vertex -0.16 1.365 0.0149997
      vertex 0.16 1.355 0.0149997
      vertex 0.16 1.365 0.0149997
    endloop
  endfacet
  facet normal 0 0 1
    outer loop
      vertex 0.16 1.355 0.0149997
      vertex -0.16 1.365 0.0149997
      vertex -0.16 1.355 0.0149997
    endloop
  endfacet
  facet normal -0 0 1
    outer loop
      vertex 0.17 1.365 0.0149997
      vertex 0.49 1.355 0.0149997
      vertex 0.49 1.365 0.0149997
    endloop
  endfacet
  facet normal 0 0 1
    outer loop
      vertex 0.49 1.355 0.0149997
      vertex 0.17 1.365 0.0149997
      vertex 0.17 1.355 0.0149997
    endloop
  endfacet
  facet normal 0 0 1
    outer loop
      vertex 0.49 1.365 0.0149997
      vertex 0.5 1.61 0.0149997
      vertex 0.49 1.6 0.0149997
    endloop
  endfacet
  facet normal 0 0 1
    outer loop
      vertex 0.5 1.61 0.0149997
      vertex 0.17 1.6 0.0149997
      vertex 0.49 1.6 0.0149997
    endloop
  endfacet
  facet normal 0 0 1
    outer loop
      vertex 0.16 1.365 0.0149997
      vertex 0.17 1.365 0.0149997
      vertex 0.17 1.6 0.0149997
    endloop
  endfacet
  facet normal 0 0 1
    outer loop
      vertex 0.17 1.365 0.0149997
      vertex 0.16 1.365 0.0149997
      vertex 0.17 1.355 0.0149997
    endloop
  endfacet
  facet normal 0 0 1
    outer loop
      vertex 0.16 1.365 0.0149997
      vertex 0.17 1.6 0.0149997
      vertex 0.16 1.6 0.0149997
    endloop
  endfacet
  facet normal 0 0 1
    outer loop
      vertex 0.5 1.61 0.0149997
      vertex 0.16 1.6 0.0149997
      vertex 0.17 1.6 0.0149997
    endloop
  endfacet
  facet normal 0 0 1
    outer loop
      vertex 0.5 1.61 0.0149997
      vertex -0.16 1.6 0.0149997
      vertex 0.16 1.6 0.0149997
    endloop
  endfacet
  facet normal 0 0 1
    outer loop
      vertex -0.17 1.365 0.0149997
      vertex -0.16 1.365 0.0149997
      vertex -0.16 1.6 0.0149997
    endloop
  endfacet
  facet normal 0 0 1
    outer loop
      vertex -0.16 1.365 0.0149997
      vertex -0.17 1.365 0.0149997
      vertex -0.16 1.355 0.0149997
    endloop
  endfacet
  facet normal 0 0 1
    outer loop
      vertex -0.17 1.365 0.0149997
      vertex -0.16 1.6 0.0149997
      vertex -0.17 1.6 0.0149997
    endloop
  endfacet
  facet normal -0 0 1
    outer loop
      vertex -0.5 1.61 0.0149997
      vertex -0.16 1.6 0.0149997
      vertex 0.5 1.61 0.0149997
    endloop
  endfacet
  facet normal 0 0 1
    outer loop
      vertex -0.16 1.6 0.0149997
      vertex -0.5 1.61 0.0149997
      vertex -0.17 1.6 0.0149997
    endloop
  endfacet
  facet normal 0 0 1
    outer loop
      vertex -0.5 1.61 0.0149997
      vertex -0.49 1.365 0.0149997
      vertex -0.49 1.6 0.0149997
    endloop
  endfacet
  facet normal 0 0 1
    outer loop
      vertex -0.49 1.365 0.0149997
      vertex -0.5 1.61 0.0149997
      vertex -0.49 1.355 0.0149997
    endloop
  endfacet
  facet normal 0 0 1
    outer loop
      vertex -0.5 1.11 0.0149997
      vertex -0.49 1.355 0.0149997
      vertex -0.5 1.61 0.0149997
    endloop
  endfacet
  facet normal 0 0 1
    outer loop
      vertex -0.17 1.6 0.0149997
      vertex -0.5 1.61 0.0149997
      vertex -0.49 1.6 0.0149997
    endloop
  endfacet
  facet normal 0 0 1
    outer loop
      vertex 0.5 1.61 0.0149997
      vertex 0.49 1.365 0.0149997
      vertex 0.5 1.11 0.0149997
    endloop
  endfacet
  facet normal -0 0 1
    outer loop
      vertex 0.49 1.355 0.0149997
      vertex 0.5 1.11 0.0149997
      vertex 0.49 1.365 0.0149997
    endloop
  endfacet
  facet normal -0 0 1
    outer loop
      vertex 0.49 1.12 0.0149997
      vertex 0.5 1.11 0.0149997
      vertex 0.49 1.355 0.0149997
    endloop
  endfacet
  facet normal -0 0 1
    outer loop
      vertex 0.17 1.12 0.0149997
      vertex 0.5 1.11 0.0149997
      vertex 0.49 1.12 0.0149997
    endloop
  endfacet
  facet normal 0 0 1
    outer loop
      vertex 0.16 1.355 0.0149997
      vertex 0.17 1.355 0.0149997
      vertex 0.16 1.365 0.0149997
    endloop
  endfacet
  facet normal 0 0 1
    outer loop
      vertex 0.17 1.355 0.0149997
      vertex 0.16 1.355 0.0149997
      vertex 0.17 1.12 0.0149997
    endloop
  endfacet
  facet normal 0 0 1
    outer loop
      vertex 0.16 1.12 0.0149997
      vertex 0.17 1.12 0.0149997
      vertex 0.16 1.355 0.0149997
    endloop
  endfacet
  facet normal -0 0 1
    outer loop
      vertex 0.16 1.12 0.0149997
      vertex 0.5 1.11 0.0149997
      vertex 0.17 1.12 0.0149997
    endloop
  endfacet
  facet normal -0 0 1
    outer loop
      vertex -0.16 1.12 0.0149997
      vertex 0.5 1.11 0.0149997
      vertex 0.16 1.12 0.0149997
    endloop
  endfacet
  facet normal 0 0 1
    outer loop
      vertex -0.17 1.355 0.0149997
      vertex -0.16 1.355 0.0149997
      vertex -0.17 1.365 0.0149997
    endloop
  endfacet
  facet normal 0 0 1
    outer loop
      vertex -0.16 1.355 0.0149997
      vertex -0.17 1.355 0.0149997
      vertex -0.16 1.12 0.0149997
    endloop
  endfacet
  facet normal 0 0 1
    outer loop
      vertex -0.17 1.12 0.0149997
      vertex -0.16 1.12 0.0149997
      vertex -0.17 1.355 0.0149997
    endloop
  endfacet
  facet normal 0 0 1
    outer loop
      vertex -0.5 1.11 0.0149997
      vertex -0.16 1.12 0.0149997
      vertex -0.17 1.12 0.0149997
    endloop
  endfacet
  facet normal 0 0 1
    outer loop
      vertex -0.5 1.11 0.0149997
      vertex -0.17 1.12 0.0149997
      vertex -0.49 1.12 0.0149997
    endloop
  endfacet
  facet normal 0 0 1
    outer loop
      vertex -0.16 1.12 0.0149997
      vertex -0.5 1.11 0.0149997
      vertex 0.5 1.11 0.0149997
    endloop
  endfacet
  facet normal 0 0 1
    outer loop
      vertex -0.49 1.355 0.0149997
      vertex -0.5 1.11 0.0149997
      vertex -0.49 1.12 0.0149997
    endloop
  endfacet
  facet normal 1 -0 0
    outer loop
      vertex 0.5 1.11 0.0149997
      vertex 0.5 1.61 -0.015
      vertex 0.5 1.61 0.0149997
    endloop
  endfacet
  facet normal 1 0 0
    outer loop
      vertex 0.5 1.61 -0.015
      vertex 0.5 1.11 0.0149997
      vertex 0.5 1.11 -0.015
    endloop
  endfacet
  facet normal 0 -1 0
    outer loop
      vertex -0.200001 1.11 -0.0100008
      vertex 0.2 1.11 0.00999962
      vertex -0.200001 1.11 0.00999962
    endloop
  endfacet
  facet normal 0 -1 -0
    outer loop
      vertex 0.2 1.11 0.00999962
      vertex -0.200001 1.11 -0.0100008
      vertex 0.2 1.11 -0.0100008
    endloop
  endfacet
  facet normal 0 -1 0
    outer loop
      vertex -0.200001 1.11 0.00999962
      vertex -0.5 1.11 0.0149997
      vertex -0.3 1.11 0.00999962
    endloop
  endfacet
  facet normal 0 -1 0
    outer loop
      vertex -0.5 1.11 0.0149997
      vertex -0.3 1.11 -0.0100008
      vertex -0.3 1.11 0.00999962
    endloop
  endfacet
  facet normal 0 -1 0
    outer loop
      vertex -0.5 1.11 -0.015
      vertex -0.200001 1.11 -0.0100008
      vertex -0.3 1.11 -0.0100008
    endloop
  endfacet
  facet normal 0 -1 -0
    outer loop
      vertex -0.200001 1.11 -0.0100008
      vertex -0.5 1.11 -0.015
      vertex 0.2 1.11 -0.0100008
    endloop
  endfacet
  facet normal 0 -1 0
    outer loop
      vertex 0.5 1.11 -0.015
      vertex 0.2 1.11 -0.0100008
      vertex -0.5 1.11 -0.015
    endloop
  endfacet
  facet normal 0 -1 0
    outer loop
      vertex -0.5 1.11 -0.015
      vertex -0.3 1.11 -0.0100008
      vertex -0.5 1.11 0.0149997
    endloop
  endfacet
  facet normal 0 -1 0
    outer loop
      vertex -0.5 1.11 0.0149997
      vertex -0.200001 1.11 0.00999962
      vertex 0.5 1.11 0.0149997
    endloop
  endfacet
  facet normal 0 -1 0
    outer loop
      vertex 0.2 1.11 0.00999962
      vertex 0.5 1.11 0.0149997
      vertex -0.200001 1.11 0.00999962
    endloop
  endfacet
  facet normal 0 -1 0
    outer loop
      vertex 0.299999 1.11 0.00999962
      vertex 0.5 1.11 0.0149997
      vertex 0.2 1.11 0.00999962
    endloop
  endfacet
  facet normal 0 -1 0
    outer loop
      vertex 0.299999 1.11 -0.0100008
      vertex 0.5 1.11 0.0149997
      vertex 0.299999 1.11 0.00999962
    endloop
  endfacet
  facet normal 0 -1 0
    outer loop
      vertex 0.299999 1.11 -0.0100008
      vertex 0.5 1.11 -0.015
      vertex 0.5 1.11 0.0149997
    endloop
  endfacet
  facet normal 0 -1 0
    outer loop
      vertex 0.2 1.11 -0.0100008
      vertex 0.5 1.11 -0.015
      vertex 0.299999 1.11 -0.0100008
    endloop
  endfacet
  facet normal 0 1 -0
    outer loop
      vertex 0.2 1.61 -0.0100008
      vertex -0.200001 1.61 0.00999962
      vertex 0.2 1.61 0.00999962
    endloop
  endfacet
  facet normal 0 1 0
    outer loop
      vertex -0.200001 1.61 0.00999962
      vertex 0.2 1.61 -0.0100008
      vertex -0.200001 1.61 -0.0100008
    endloop
  endfacet
  facet normal 0 1 0
    outer loop
      vertex 0.2 1.61 0.00999962
      vertex 0.5 1.61 0.0149997
      vertex 0.299999 1.61 0.00999962
    endloop
  endfacet
  facet normal 0 1 0
    outer loop
      vertex 0.5 1.61 0.0149997
      vertex 0.299999 1.61 -0.0100008
      vertex 0.299999 1.61 0.00999962
    endloop
  endfacet
  facet normal 0 1 0
    outer loop
      vertex 0.5 1.61 -0.015
      vertex 0.2 1.61 -0.0100008
      vertex 0.299999 1.61 -0.0100008
    endloop
  endfacet
  facet normal 0 1 0
    outer loop
      vertex 0.2 1.61 -0.0100008
      vertex 0.5 1.61 -0.015
      vertex -0.200001 1.61 -0.0100008
    endloop
  endfacet
  facet normal 0 1 0
    outer loop
      vertex -0.5 1.61 -0.015
      vertex -0.200001 1.61 -0.0100008
      vertex 0.5 1.61 -0.015
    endloop
  endfacet
  facet normal 0 1 -0
    outer loop
      vertex 0.5 1.61 -0.015
      vertex 0.299999 1.61 -0.0100008
      vertex 0.5 1.61 0.0149997
    endloop
  endfacet
  facet normal 0 1 0
    outer loop
      vertex 0.5 1.61 0.0149997
      vertex 0.2 1.61 0.00999962
      vertex -0.5 1.61 0.0149997
    endloop
  endfacet
  facet normal 0 1 -0
    outer loop
      vertex -0.200001 1.61 0.00999962
      vertex -0.5 1.61 0.0149997
      vertex 0.2 1.61 0.00999962
    endloop
  endfacet
  facet normal 0 1 -0
    outer loop
      vertex -0.3 1.61 0.00999962
      vertex -0.5 1.61 0.0149997
      vertex -0.200001 1.61 0.00999962
    endloop
  endfacet
  facet normal 0 1 -0
    outer loop
      vertex -0.3 1.61 -0.0100008
      vertex -0.5 1.61 0.0149997
      vertex -0.3 1.61 0.00999962
    endloop
  endfacet
  facet normal 0 1 0
    outer loop
      vertex -0.3 1.61 -0.0100008
      vertex -0.5 1.61 -0.015
      vertex -0.5 1.61 0.0149997
    endloop
  endfacet
  facet normal 0 1 0
    outer loop
      vertex -0.200001 1.61 -0.0100008
      vertex -0.5 1.61 -0.015
      vertex -0.3 1.61 -0.0100008
    endloop
  endfacet
  facet normal -1 0 0
    outer loop
      vertex -0.49 1.65 0.0149997
      vertex -0.49 1.885 0.018
      vertex -0.49 1.885 0.0149997
    endloop
  endfacet
  facet normal -1 -0 0
    outer loop
      vertex -0.49 1.885 0.018
      vertex -0.49 1.65 0.0149997
      vertex -0.49 1.65 0.018
    endloop
  endfacet
  facet normal -0 0 1
    outer loop
      vertex -0.49 1.885 0.018
      vertex -0.17 1.65 0.018
      vertex -0.17 1.885 0.018
    endloop
  endfacet
  facet normal 0 0 1
    outer loop
      vertex -0.17 1.65 0.018
      vertex -0.49 1.885 0.018
      vertex -0.49 1.65 0.018
    endloop
  endfacet
  facet normal 1 -0 0
    outer loop
      vertex -0.17 1.65 0.018
      vertex -0.17 1.885 0.0149997
      vertex -0.17 1.885 0.018
    endloop
  endfacet
  facet normal 1 0 0
    outer loop
      vertex -0.17 1.885 0.0149997
      vertex -0.17 1.65 0.018
      vertex -0.17 1.65 0.0149997
    endloop
  endfacet
  facet normal 0 1 -0
    outer loop
      vertex -0.17 1.885 0.0149997
      vertex -0.49 1.885 0.018
      vertex -0.17 1.885 0.018
    endloop
  endfacet
  facet normal 0 1 0
    outer loop
      vertex -0.49 1.885 0.018
      vertex -0.17 1.885 0.0149997
      vertex -0.49 1.885 0.0149997
    endloop
  endfacet
  facet normal 0 0 -1
    outer loop
      vertex -0.5 1.64 -0.015
      vertex 0.5 2.14 -0.015
      vertex 0.5 1.64 -0.015
    endloop
  endfacet
  facet normal -0 0 -1
    outer loop
      vertex 0.5 2.14 -0.015
      vertex -0.5 1.64 -0.015
      vertex -0.5 2.14 -0.015
    endloop
  endfacet
  facet normal 0 -1 0
    outer loop
      vertex -0.49 1.65 0.0149997
      vertex -0.17 1.65 0.018
      vertex -0.49 1.65 0.018
    endloop
  endfacet
  facet normal 0 -1 -0
    outer loop
      vertex -0.17 1.65 0.018
      vertex -0.49 1.65 0.0149997
      vertex -0.17 1.65 0.0149997
    endloop
  endfacet
  facet normal -1 0 0
    outer loop
      vertex -0.49 1.895 0.0149997
      vertex -0.49 2.13 0.018
      vertex -0.49 2.13 0.0149997
    endloop
  endfacet
  facet normal -1 -0 0
    outer loop
      vertex -0.49 2.13 0.018
      vertex -0.49 1.895 0.0149997
      vertex -0.49 1.895 0.018
    endloop
  endfacet
  facet normal -0 0 1
    outer loop
      vertex -0.49 2.13 0.018
      vertex -0.17 1.895 0.018
      vertex -0.17 2.13 0.018
    endloop
  endfacet
  facet normal 0 0 1
    outer loop
      vertex -0.17 1.895 0.018
      vertex -0.49 2.13 0.018
      vertex -0.49 1.895 0.018
    endloop
  endfacet
  facet normal 1 -0 0
    outer loop
      vertex -0.17 1.895 0.018
      vertex -0.17 2.13 0.0149997
      vertex -0.17 2.13 0.018
    endloop
  endfacet
  facet normal 1 0 0
    outer loop
      vertex -0.17 2.13 0.0149997
      vertex -0.17 1.895 0.018
      vertex -0.17 1.895 0.0149997
    endloop
  endfacet
  facet normal 0 1 -0
    outer loop
      vertex -0.17 2.13 0.0149997
      vertex -0.49 2.13 0.018
      vertex -0.17 2.13 0.018
    endloop
  endfacet
  facet normal 0 1 0
    outer loop
      vertex -0.49 2.13 0.018
      vertex -0.17 2.13 0.0149997
      vertex -0.49 2.13 0.0149997
    endloop
  endfacet
  facet normal 0 -1 0
    outer loop
      vertex -0.49 1.895 0.0149997
      vertex -0.17 1.895 0.018
      vertex -0.49 1.895 0.018
    endloop
  endfacet
  facet normal 0 -1 -0
    outer loop
      vertex -0.17 1.895 0.018
      vertex -0.49 1.895 0.0149997
      vertex -0.17 1.895 0.0149997
    endloop
  endfacet
  facet normal -1 0 0
    outer loop
      vertex -0.16 1.65 0.0149997
      vertex -0.16 1.885 0.018
      vertex -0.16 1.885 0.0149997
    endloop
  endfacet
  facet normal -1 -0 0
    outer loop
      vertex -0.16 1.885 0.018
      vertex -0.16 1.65 0.0149997
      vertex -0.16 1.65 0.018
    endloop
  endfacet
  facet normal -0 0 1
    outer loop
      vertex -0.16 1.885 0.018
      vertex 0.16 1.65 0.018
      vertex 0.16 1.885 0.018
    endloop
  endfacet
  facet normal 0 0 1
    outer loop
      vertex 0.16 1.65 0.018
      vertex -0.16 1.885 0.018
      vertex -0.16 1.65 0.018
    endloop
  endfacet
  facet normal 1 -0 0
    outer loop
      vertex 0.16 1.65 0.018
      vertex 0.16 1.885 0.0149997
      vertex 0.16 1.885 0.018
    endloop
  endfacet
  facet normal 1 0 0
    outer loop
      vertex 0.16 1.885 0.0149997
      vertex 0.16 1.65 0.018
      vertex 0.16 1.65 0.0149997
    endloop
  endfacet
  facet normal 0 -1 0
    outer loop
      vertex -0.16 1.65 0.0149997
      vertex 0.16 1.65 0.018
      vertex -0.16 1.65 0.018
    endloop
  endfacet
  facet normal 0 -1 -0
    outer loop
      vertex 0.16 1.65 0.018
      vertex -0.16 1.65 0.0149997
      vertex 0.16 1.65 0.0149997
    endloop
  endfacet
  facet normal 0 1 -0
    outer loop
      vertex 0.16 1.885 0.0149997
      vertex -0.16 1.885 0.018
      vertex 0.16 1.885 0.018
    endloop
  endfacet
  facet normal 0 1 0
    outer loop
      vertex -0.16 1.885 0.018
      vertex 0.16 1.885 0.0149997
      vertex -0.16 1.885 0.0149997
    endloop
  endfacet
  facet normal -1 0 0
    outer loop
      vertex -0.16 1.895 0.0149997
      vertex -0.16 2.13 0.018
      vertex -0.16 2.13 0.0149997
    endloop
  endfacet
  facet normal -1 -0 0
    outer loop
      vertex -0.16 2.13 0.018
      vertex -0.16 1.895 0.0149997
      vertex -0.16 1.895 0.018
    endloop
  endfacet
  facet normal -0 0 1
    outer loop
      vertex -0.16 2.13 0.018
      vertex 0.16 1.895 0.018
      vertex 0.16 2.13 0.018
    endloop
  endfacet
  facet normal 0 0 1
    outer loop
      vertex 0.16 1.895 0.018
      vertex -0.16 2.13 0.018
      vertex -0.16 1.895 0.018
    endloop
  endfacet
  facet normal 1 -0 0
    outer loop
      vertex 0.16 1.895 0.018
      vertex 0.16 2.13 0.0149997
      vertex 0.16 2.13 0.018
    endloop
  endfacet
  facet normal 1 0 0
    outer loop
      vertex 0.16 2.13 0.0149997
      vertex 0.16 1.895 0.018
      vertex 0.16 1.895 0.0149997
    endloop
  endfacet
  facet normal 0 1 -0
    outer loop
      vertex 0.16 2.13 0.0149997
      vertex -0.16 2.13 0.018
      vertex 0.16 2.13 0.018
    endloop
  endfacet
  facet normal 0 1 0
    outer loop
      vertex -0.16 2.13 0.018
      vertex 0.16 2.13 0.0149997
      vertex -0.16 2.13 0.0149997
    endloop
  endfacet
  facet normal 0 -1 0
    outer loop
      vertex -0.16 1.895 0.0149997
      vertex 0.16 1.895 0.018
      vertex -0.16 1.895 0.018
    endloop
  endfacet
  facet normal 0 -1 -0
    outer loop
      vertex 0.16 1.895 0.018
      vertex -0.16 1.895 0.0149997
      vertex 0.16 1.895 0.0149997
    endloop
  endfacet
  facet normal -1 0 0
    outer loop
      vertex 0.17 1.65 0.0149997
      vertex 0.17 1.885 0.018
      vertex 0.17 1.885 0.0149997
    endloop
  endfacet
  facet normal -1 -0 0
    outer loop
      vertex 0.17 1.885 0.018
      vertex 0.17 1.65 0.0149997
      vertex 0.17 1.65 0.018
    endloop
  endfacet
  facet normal -0 0 1
    outer loop
      vertex 0.17 1.885 0.018
      vertex 0.49 1.65 0.018
      vertex 0.49 1.885 0.018
    endloop
  endfacet
  facet normal 0 0 1
    outer loop
      vertex 0.49 1.65 0.018
      vertex 0.17 1.885 0.018
      vertex 0.17 1.65 0.018
    endloop
  endfacet
  facet normal 1 -0 0
    outer loop
      vertex 0.49 1.65 0.018
      vertex 0.49 1.885 0.0149997
      vertex 0.49 1.885 0.018
    endloop
  endfacet
  facet normal 1 0 0
    outer loop
      vertex 0.49 1.885 0.0149997
      vertex 0.49 1.65 0.018
      vertex 0.49 1.65 0.0149997
    endloop
  endfacet
  facet normal 0 1 -0
    outer loop
      vertex 0.49 1.885 0.0149997
      vertex 0.17 1.885 0.018
      vertex 0.49 1.885 0.018
    endloop
  endfacet
  facet normal 0 1 0
    outer loop
      vertex 0.17 1.885 0.018
      vertex 0.49 1.885 0.0149997
      vertex 0.17 1.885 0.0149997
    endloop
  endfacet
  facet normal 0 -1 0
    outer loop
      vertex 0.17 1.65 0.0149997
      vertex 0.49 1.65 0.018
      vertex 0.17 1.65 0.018
    endloop
  endfacet
  facet normal 0 -1 -0
    outer loop
      vertex 0.49 1.65 0.018
      vertex 0.17 1.65 0.0149997
      vertex 0.49 1.65 0.0149997
    endloop
  endfacet
  facet normal -1 0 0
    outer loop
      vertex 0.17 1.895 0.0149997
      vertex 0.17 2.13 0.018
      vertex 0.17 2.13 0.0149997
    endloop
  endfacet
  facet normal -1 -0 0
    outer loop
      vertex 0.17 2.13 0.018
      vertex 0.17 1.895 0.0149997
      vertex 0.17 1.895 0.018
    endloop
  endfacet
  facet normal -0 0 1
    outer loop
      vertex 0.17 2.13 0.018
      vertex 0.49 1.895 0.018
      vertex 0.49 2.13 0.018
    endloop
  endfacet
  facet normal 0 0 1
    outer loop
      vertex 0.49 1.895 0.018
      vertex 0.17 2.13 0.018
      vertex 0.17 1.895 0.018
    endloop
  endfacet
  facet normal 1 -0 0
    outer loop
      vertex 0.49 1.895 0.018
      vertex 0.49 2.13 0.0149997
      vertex 0.49 2.13 0.018
    endloop
  endfacet
  facet normal 1 0 0
    outer loop
      vertex 0.49 2.13 0.0149997
      vertex 0.49 1.895 0.018
      vertex 0.49 1.895 0.0149997
    endloop
  endfacet
  facet normal 0 1 -0
    outer loop
      vertex 0.49 2.13 0.0149997
      vertex 0.17 2.13 0.018
      vertex 0.49 2.13 0.018
    endloop
  endfacet
  facet normal 0 1 0
    outer loop
      vertex 0.17 2.13 0.018
      vertex 0.49 2.13 0.0149997
      vertex 0.17 2.13 0.0149997
    endloop
  endfacet
  facet normal 0 -1 0
    outer loop
      vertex 0.17 1.895 0.0149997
      vertex 0.49 1.895 0.018
      vertex 0.17 1.895 0.018
    endloop
  endfacet
  facet normal 0 -1 -0
    outer loop
      vertex 0.49 1.895 0.018
      vertex 0.17 1.895 0.0149997
      vertex 0.49 1.895 0.0149997
    endloop
  endfacet
  facet normal -1 0 0
    outer loop
      vertex -0.5 1.64 -0.015
      vertex -0.5 2.14 0.0149997
      vertex -0.5 2.14 -0.015
    endloop
  endfacet
  facet normal -1 -0 0
    outer loop
      vertex -0.5 2.14 0.0149997
      vertex -0.5 1.64 -0.015
      vertex -0.5 1.64 0.0149997
    endloop
  endfacet
  facet normal -0 0 1
    outer loop
      vertex -0.49 1.895 0.0149997
      vertex -0.17 1.885 0.0149997
      vertex -0.17 1.895 0.0149997
    endloop
  endfacet
  facet normal 0 0 1
    outer loop
      vertex -0.17 1.885 0.0149997
      vertex -0.49 1.895 0.0149997
      vertex -0.49 1.885 0.0149997
    endloop
  endfacet
  facet normal -0 0 1
    outer loop
      vertex -0.16 1.895 0.0149997
      vertex 0.16 1.885 0.0149997
      vertex 0.16 1.895 0.0149997
    endloop
  endfacet
  facet normal 0 0 1
    outer loop
      vertex 0.16 1.885 0.0149997
      vertex -0.16 1.895 0.0149997
      vertex -0.16 1.885 0.0149997
    endloop
  endfacet
  facet normal -0 0 1
    outer loop
      vertex 0.17 1.895 0.0149997
      vertex 0.49 1.885 0.0149997
      vertex 0.49 1.895 0.0149997
    endloop
  endfacet
  facet normal 0 0 1
    outer loop
      vertex 0.49 1.885 0.0149997
      vertex 0.17 1.895 0.0149997
      vertex 0.17 1.885 0.0149997
    endloop
  endfacet
  facet normal 0 0 1
    outer loop
      vertex 0.49 1.895 0.0149997
      vertex 0.5 2.14 0.0149997
      vertex 0.49 2.13 0.0149997
    endloop
  endfacet
  facet normal 0 0 1
    outer loop
      vertex 0.5 2.14 0.0149997
      vertex 0.17 2.13 0.0149997
      vertex 0.49 2.13 0.0149997
    endloop
  endfacet
  facet normal 0 0 1
    outer loop
      vertex 0.16 1.895 0.0149997
      vertex 0.17 1.895 0.0149997
      vertex 0.17 2.13 0.0149997
    endloop
  endfacet
  facet normal 0 0 1
    outer loop
      vertex 0.17 1.895 0.0149997
      vertex 0.16 1.895 0.0149997
      vertex 0.17 1.885 0.0149997
    endloop
  endfacet
  facet normal 0 0 1
    outer loop
      vertex 0.16 1.895 0.0149997
      vertex 0.17 2.13 0.0149997
      vertex 0.16 2.13 0.0149997
    endloop
  endfacet
  facet normal 0 0 1
    outer loop
      vertex 0.5 2.14 0.0149997
      vertex 0.16 2.13 0.0149997
      vertex 0.17 2.13 0.0149997
    endloop
  endfacet
  facet normal 0 0 1
    outer loop
      vertex 0.5 2.14 0.0149997
      vertex -0.16 2.13 0.0149997
      vertex 0.16 2.13 0.0149997
    endloop
  endfacet
  facet normal 0 0 1
    outer loop
      vertex -0.17 1.895 0.0149997
      vertex -0.16 1.895 0.0149997
      vertex -0.16 2.13 0.0149997
    endloop
  endfacet
  facet normal 0 0 1
    outer loop
      vertex -0.16 1.895 0.0149997
      vertex -0.17 1.895 0.0149997
      vertex -0.16 1.885 0.0149997
    endloop
  endfacet
  facet normal 0 0 1
    outer loop
      vertex -0.17 1.895 0.0149997
      vertex -0.16 2.13 0.0149997
      vertex -0.17 2.13 0.0149997
    endloop
  endfacet
  facet normal -0 0 1
    outer loop
      vertex -0.5 2.14 0.0149997
      vertex -0.16 2.13 0.0149997
      vertex 0.5 2.14 0.0149997
    endloop
  endfacet
  facet normal 0 0 1
    outer loop
      vertex -0.16 2.13 0.0149997
      vertex -0.5 2.14 0.0149997
      vertex -0.17 2.13 0.0149997
    endloop
  endfacet
  facet normal 0 0 1
    outer loop
      vertex -0.5 2.14 0.0149997
      vertex -0.49 1.895 0.0149997
      vertex -0.49 2.13 0.0149997
    endloop
  endfacet
  facet normal 0 0 1
    outer loop
      vertex -0.49 1.895 0.0149997
      vertex -0.5 2.14 0.0149997
      vertex -0.49 1.885 0.0149997
    endloop
  endfacet
  facet normal 0 0 1
    outer loop
      vertex -0.5 1.64 0.0149997
      vertex -0.49 1.885 0.0149997
      vertex -0.5 2.14 0.0149997
    endloop
  endfacet
  facet normal 0 0 1
    outer loop
      vertex -0.17 2.13 0.0149997
      vertex -0.5 2.14 0.0149997
      vertex -0.49 2.13 0.0149997
    endloop
  endfacet
  facet normal 0 0 1
    outer loop
      vertex 0.5 2.14 0.0149997
      vertex 0.49 1.895 0.0149997
      vertex 0.5 1.64 0.0149997
    endloop
  endfacet
  facet normal -0 0 1
    outer loop
      vertex 0.49 1.885 0.0149997
      vertex 0.5 1.64 0.0149997
      vertex 0.49 1.895 0.0149997
    endloop
  endfacet
  facet normal -0 0 1
    outer loop
      vertex 0.49 1.65 0.0149997
      vertex 0.5 1.64 0.0149997
      vertex 0.49 1.885 0.0149997
    endloop
  endfacet
  facet normal -0 0 1
    outer loop
      vertex 0.17 1.65 0.0149997
      vertex 0.5 1.64 0.0149997
      vertex 0.49 1.65 0.0149997
    endloop
  endfacet
  facet normal 0 0 1
    outer loop
      vertex 0.16 1.885 0.0149997
      vertex 0.17 1.885 0.0149997
      vertex 0.16 1.895 0.0149997
    endloop
  endfacet
  facet normal 0 0 1
    outer loop
      vertex 0.17 1.885 0.0149997
      vertex 0.16 1.885 0.0149997
      vertex 0.17 1.65 0.0149997
    endloop
  endfacet
  facet normal 0 0 1
    outer loop
      vertex 0.16 1.65 0.0149997
      vertex 0.17 1.65 0.0149997
      vertex 0.16 1.885 0.0149997
    endloop
  endfacet
  facet normal -0 0 1
    outer loop
      vertex 0.16 1.65 0.0149997
      vertex 0.5 1.64 0.0149997
      vertex 0.17 1.65 0.0149997
    endloop
  endfacet
  facet normal -0 0 1
    outer loop
      vertex -0.16 1.65 0.0149997
      vertex 0.5 1.64 0.0149997
      vertex 0.16 1.65 0.0149997
    endloop
  endfacet
  facet normal 0 0 1
    outer loop
      vertex -0.17 1.885 0.0149997
      vertex -0.16 1.885 0.0149997
      vertex -0.17 1.895 0.0149997
    endloop
  endfacet
  facet normal 0 0 1
    outer loop
      vertex -0.16 1.885 0.0149997
      vertex -0.17 1.885 0.0149997
      vertex -0.16 1.65 0.0149997
    endloop
  endfacet
  facet normal 0 0 1
    outer loop
      vertex -0.17 1.65 0.0149997
      vertex -0.16 1.65 0.0149997
      vertex -0.17 1.885 0.0149997
    endloop
  endfacet
  facet normal 0 0 1
    outer loop
      vertex -0.5 1.64 0.0149997
      vertex -0.16 1.65 0.0149997
      vertex -0.17 1.65 0.0149997
    endloop
  endfacet
  facet normal 0 0 1
    outer loop
      vertex -0.5 1.64 0.0149997
      vertex -0.17 1.65 0.0149997
      vertex -0.49 1.65 0.0149997
    endloop
  endfacet
  facet normal 0 0 1
    outer loop
      vertex -0.16 1.65 0.0149997
      vertex -0.5 1.64 0.0149997
      vertex 0.5 1.64 0.0149997
    endloop
  endfacet
  facet normal 0 0 1
    outer loop
      vertex -0.49 1.885 0.0149997
      vertex -0.5 1.64 0.0149997
      vertex -0.49 1.65 0.0149997
    endloop
  endfacet
  facet normal 1 -0 0
    outer loop
      vertex 0.5 1.64 0.0149997
      vertex 0.5 2.14 -0.015
      vertex 0.5 2.14 0.0149997
    endloop
  endfacet
  facet normal 1 0 0
    outer loop
      vertex 0.5 2.14 -0.015
      vertex 0.5 1.64 0.0149997
      vertex 0.5 1.64 -0.015
    endloop
  endfacet
  facet normal 0 1 -0
    outer loop
      vertex 0.5 2.14 -0.015
      vertex -0.5 2.14 0.0149997
      vertex 0.5 2.14 0.0149997
    endloop
  endfacet
  facet normal 0 1 0
    outer loop
      vertex -0.5 2.14 0.0149997
      vertex 0.5 2.14 -0.015
      vertex -0.5 2.14 -0.015
    endloop
  endfacet
  facet normal 0 -1 0
    outer loop
      vertex -0.200001 1.64 -0.0100008
      vertex 0.2 1.64 0.00999962
      vertex -0.200001 1.64 0.00999962
    endloop
  endfacet
  facet normal 0 -1 -0
    outer loop
      vertex 0.2 1.64 0.00999962
      vertex -0.200001 1.64 -0.0100008
      vertex 0.2 1.64 -0.0100008
    endloop
  endfacet
  facet normal 0 -1 0
    outer loop
      vertex -0.200001 1.64 0.00999962
      vertex -0.5 1.64 0.0149997
      vertex -0.3 1.64 0.00999962
    endloop
  endfacet
  facet normal 0 -1 0
    outer loop
      vertex -0.5 1.64 0.0149997
      vertex -0.3 1.64 -0.0100008
      vertex -0.3 1.64 0.00999962
    endloop
  endfacet
  facet normal 0 -1 0
    outer loop
      vertex -0.5 1.64 -0.015
      vertex -0.200001 1.64 -0.0100008
      vertex -0.3 1.64 -0.0100008
    endloop
  endfacet
  facet normal 0 -1 -0
    outer loop
      vertex -0.200001 1.64 -0.0100008
      vertex -0.5 1.64 -0.015
      vertex 0.2 1.64 -0.0100008
    endloop
  endfacet
  facet normal 0 -1 0
    outer loop
      vertex 0.5 1.64 -0.015
      vertex 0.2 1.64 -0.0100008
      vertex -0.5 1.64 -0.015
    endloop
  endfacet
  facet normal 0 -1 0
    outer loop
      vertex -0.5 1.64 -0.015
      vertex -0.3 1.64 -0.0100008
      vertex -0.5 1.64 0.0149997
    endloop
  endfacet
  facet normal 0 -1 0
    outer loop
      vertex -0.5 1.64 0.0149997
      vertex -0.200001 1.64 0.00999962
      vertex 0.5 1.64 0.0149997
    endloop
  endfacet
  facet normal 0 -1 0
    outer loop
      vertex 0.2 1.64 0.00999962
      vertex 0.5 1.64 0.0149997
      vertex -0.200001 1.64 0.00999962
    endloop
  endfacet
  facet normal 0 -1 0
    outer loop
      vertex 0.299999 1.64 0.00999962
      vertex 0.5 1.64 0.0149997
      vertex 0.2 1.64 0.00999962
    endloop
  endfacet
  facet normal 0 -1 0
    outer loop
      vertex 0.299999 1.64 -0.0100008
      vertex 0.5 1.64 0.0149997
      vertex 0.299999 1.64 0.00999962
    endloop
  endfacet
  facet normal 0 -1 0
    outer loop
      vertex 0.299999 1.64 -0.0100008
      vertex 0.5 1.64 -0.015
      vertex 0.5 1.64 0.0149997
    endloop
  endfacet
  facet normal 0 -1 0
    outer loop
      vertex 0.2 1.64 -0.0100008
      vertex 0.5 1.64 -0.015
      vertex 0.299999 1.64 -0.0100008
    endloop
  endfacet
  facet normal -1 0 0
    outer loop
      vertex -0.3 0.55 -0.0100008
      vertex -0.3 0.58 0.00999962
      vertex -0.3 0.58 -0.0100008
    endloop
  endfacet
  facet normal -1 -0 0
    outer loop
      vertex -0.3 0.58 0.00999962
      vertex -0.3 0.55 -0.0100008
      vertex -0.3 0.55 0.00999962
    endloop
  endfacet
  facet normal -1 0 0
    outer loop
      vertex -0.3 1.08 -0.0100008
      vertex -0.3 1.11 0.00999962
      vertex -0.3 1.11 -0.0100008
    endloop
  endfacet
  facet normal -1 -0 0
    outer loop
      vertex -0.3 1.11 0.00999962
      vertex -0.3 1.08 -0.0100008
      vertex -0.3 1.08 0.00999962
    endloop
  endfacet
  facet normal -1 0 0
    outer loop
      vertex -0.3 1.61 -0.0100008
      vertex -0.3 1.64 0.00999962
      vertex -0.3 1.64 -0.0100008
    endloop
  endfacet
  facet normal -1 -0 0
    outer loop
      vertex -0.3 1.64 0.00999962
      vertex -0.3 1.61 -0.0100008
      vertex -0.3 1.61 0.00999962
    endloop
  endfacet
  facet normal -0 0 1
    outer loop
      vertex -0.3 0.58 0.00999962
      vertex -0.200001 0.55 0.00999962
      vertex -0.200001 0.58 0.00999962
    endloop
  endfacet
  facet normal 0 0 1
    outer loop
      vertex -0.200001 0.55 0.00999962
      vertex -0.3 0.58 0.00999962
      vertex -0.3 0.55 0.00999962
    endloop
  endfacet
  facet normal -0 0 1
    outer loop
      vertex -0.3 1.11 0.00999962
      vertex -0.200001 1.08 0.00999962
      vertex -0.200001 1.11 0.00999962
    endloop
  endfacet
  facet normal 0 0 1
    outer loop
      vertex -0.200001 1.08 0.00999962
      vertex -0.3 1.11 0.00999962
      vertex -0.3 1.08 0.00999962
    endloop
  endfacet
  facet normal -0 0 1
    outer loop
      vertex -0.3 1.64 0.00999962
      vertex -0.200001 1.61 0.00999962
      vertex -0.200001 1.64 0.00999962
    endloop
  endfacet
  facet normal 0 0 1
    outer loop
      vertex -0.200001 1.61 0.00999962
      vertex -0.3 1.64 0.00999962
      vertex -0.3 1.61 0.00999962
    endloop
  endfacet
  facet normal 1 -0 0
    outer loop
      vertex -0.200001 0.55 0.00999962
      vertex -0.200001 0.58 -0.0100008
      vertex -0.200001 0.58 0.00999962
    endloop
  endfacet
  facet normal 1 0 0
    outer loop
      vertex -0.200001 0.58 -0.0100008
      vertex -0.200001 0.55 0.00999962
      vertex -0.200001 0.55 -0.0100008
    endloop
  endfacet
  facet normal 1 -0 0
    outer loop
      vertex -0.200001 1.08 0.00999962
      vertex -0.200001 1.11 -0.0100008
      vertex -0.200001 1.11 0.00999962
    endloop
  endfacet
  facet normal 1 0 0
    outer loop
      vertex -0.200001 1.11 -0.0100008
      vertex -0.200001 1.08 0.00999962
      vertex -0.200001 1.08 -0.0100008
    endloop
  endfacet
  facet normal 1 -0 0
    outer loop
      vertex -0.200001 1.61 0.00999962
      vertex -0.200001 1.64 -0.0100008
      vertex -0.200001 1.64 0.00999962
    endloop
  endfacet
  facet normal 1 0 0
    outer loop
      vertex -0.200001 1.64 -0.0100008
      vertex -0.200001 1.61 0.00999962
      vertex -0.200001 1.61 -0.0100008
    endloop
  endfacet
  facet normal 0 0 -1
    outer loop
      vertex -0.3 0.55 -0.0100008
      vertex -0.200001 0.58 -0.0100008
      vertex -0.200001 0.55 -0.0100008
    endloop
  endfacet
  facet normal -0 0 -1
    outer loop
      vertex -0.200001 0.58 -0.0100008
      vertex -0.3 0.55 -0.0100008
      vertex -0.3 0.58 -0.0100008
    endloop
  endfacet
  facet normal 0 0 -1
    outer loop
      vertex -0.3 1.08 -0.0100008
      vertex -0.200001 1.11 -0.0100008
      vertex -0.200001 1.08 -0.0100008
    endloop
  endfacet
  facet normal -0 0 -1
    outer loop
      vertex -0.200001 1.11 -0.0100008
      vertex -0.3 1.08 -0.0100008
      vertex -0.3 1.11 -0.0100008
    endloop
  endfacet
  facet normal 0 0 -1
    outer loop
      vertex -0.3 1.61 -0.0100008
      vertex -0.200001 1.64 -0.0100008
      vertex -0.200001 1.61 -0.0100008
    endloop
  endfacet
  facet normal -0 0 -1
    outer loop
      vertex -0.200001 1.64 -0.0100008
      vertex -0.3 1.61 -0.0100008
      vertex -0.3 1.64 -0.0100008
    endloop
  endfacet
  facet normal -1 0 0
    outer loop
      vertex 0.2 0.55 -0.0100008
      vertex 0.2 0.58 0.00999962
      vertex 0.2 0.58 -0.0100008
    endloop
  endfacet
  facet normal -1 -0 0
    outer loop
      vertex 0.2 0.58 0.00999962
      vertex 0.2 0.55 -0.0100008
      vertex 0.2 0.55 0.00999962
    endloop
  endfacet
  facet normal -1 0 0
    outer loop
      vertex 0.2 1.08 -0.0100008
      vertex 0.2 1.11 0.00999962
      vertex 0.2 1.11 -0.0100008
    endloop
  endfacet
  facet normal -1 -0 0
    outer loop
      vertex 0.2 1.11 0.00999962
      vertex 0.2 1.08 -0.0100008
      vertex 0.2 1.08 0.00999962
    endloop
  endfacet
  facet normal -1 0 0
    outer loop
      vertex 0.2 1.61 -0.0100008
      vertex 0.2 1.64 0.00999962
      vertex 0.2 1.64 -0.0100008
    endloop
  endfacet
  facet normal -1 -0 0
    outer loop
      vertex 0.2 1.64 0.00999962
      vertex 0.2 1.61 -0.0100008
      vertex 0.2 1.61 0.00999962
    endloop
  endfacet
  facet normal -0 0 1
    outer loop
      vertex 0.2 0.58 0.00999962
      vertex 0.299999 0.55 0.00999962
      vertex 0.299999 0.58 0.00999962
    endloop
  endfacet
  facet normal 0 0 1
    outer loop
      vertex 0.299999 0.55 0.00999962
      vertex 0.2 0.58 0.00999962
      vertex 0.2 0.55 0.00999962
    endloop
  endfacet
  facet normal -0 0 1
    outer loop
      vertex 0.2 1.11 0.00999962
      vertex 0.299999 1.08 0.00999962
      vertex 0.299999 1.11 0.00999962
    endloop
  endfacet
  facet normal 0 0 1
    outer loop
      vertex 0.299999 1.08 0.00999962
      vertex 0.2 1.11 0.00999962
      vertex 0.2 1.08 0.00999962
    endloop
  endfacet
  facet normal -0 0 1
    outer loop
      vertex 0.2 1.64 0.00999962
      vertex 0.299999 1.61 0.00999962
      vertex 0.299999 1.64 0.00999962
    endloop
  endfacet
  facet normal 0 0 1
    outer loop
      vertex 0.299999 1.61 0.00999962
      vertex 0.2 1.64 0.00999962
      vertex 0.2 1.61 0.00999962
    endloop
  endfacet
  facet normal 1 -0 0
    outer loop
      vertex 0.299999 0.55 0.00999962
      vertex 0.299999 0.58 -0.0100008
      vertex 0.299999 0.58 0.00999962
    endloop
  endfacet
  facet normal 1 0 0
    outer loop
      vertex 0.299999 0.58 -0.0100008
      vertex 0.299999 0.55 0.00999962
      vertex 0.299999 0.55 -0.0100008
    endloop
  endfacet
  facet normal 1 -0 0
    outer loop
      vertex 0.299999 1.08 0.00999962
      vertex 0.299999 1.11 -0.0100008
      vertex 0.299999 1.11 0.00999962
    endloop
  endfacet
  facet normal 1 0 0
    outer loop
      vertex 0.299999 1.11 -0.0100008
      vertex 0.299999 1.08 0.00999962
      vertex 0.299999 1.08 -0.0100008
    endloop
  endfacet
  facet normal 1 -0 0
    outer loop
      vertex 0.299999 1.61 0.00999962
      vertex 0.299999 1.64 -0.0100008
      vertex 0.299999 1.64 0.00999962
    endloop
  endfacet
  facet normal 1 0 0
    outer loop
      vertex 0.299999 1.64 -0.0100008
      vertex 0.299999 1.61 0.00999962
      vertex 0.299999 1.61 -0.0100008
    endloop
  endfacet
  facet normal 0 0 -1
    outer loop
      vertex 0.2 0.55 -0.0100008
      vertex 0.299999 0.58 -0.0100008
      vertex 0.299999 0.55 -0.0100008
    endloop
  endfacet
  facet normal -0 0 -1
    outer loop
      vertex 0.299999 0.58 -0.0100008
      vertex 0.2 0.55 -0.0100008
      vertex 0.2 0.58 -0.0100008
    endloop
  endfacet
  facet normal 0 0 -1
    outer loop
      vertex 0.2 1.08 -0.0100008
      vertex 0.299999 1.11 -0.0100008
      vertex 0.299999 1.08 -0.0100008
    endloop
  endfacet
  facet normal -0 0 -1
    outer loop
      vertex 0.299999 1.11 -0.0100008
      vertex 0.2 1.08 -0.0100008
      vertex 0.2 1.11 -0.0100008
    endloop
  endfacet
  facet normal 0 0 -1
    outer loop
      vertex 0.2 1.61 -0.0100008
      vertex 0.299999 1.64 -0.0100008
      vertex 0.299999 1.61 -0.0100008
    endloop
  endfacet
  facet normal -0 0 -1
    outer loop
      vertex 0.299999 1.64 -0.0100008
      vertex 0.2 1.61 -0.0100008
      vertex 0.2 1.64 -0.0100008
    endloop
  endfacet
  facet normal -1 0 0
    outer loop
      vertex -0.0499992 7.62939e-07 -0.00999928
      vertex -0.0499992 0.05 0.00999928
      vertex -0.0499992 0.05 -0.00999928
    endloop
  endfacet
  facet normal -1 -0 0
    outer loop
      vertex -0.0499992 0.05 0.00999928
      vertex -0.0499992 7.62939e-07 -0.00999928
      vertex -0.0499992 7.62939e-07 0.00999928
    endloop
  endfacet
  facet normal -0 0 1
    outer loop
      vertex -0.0499992 0.05 0.00999928
      vertex 0.0499992 7.62939e-07 0.00999928
      vertex 0.0499992 0.05 0.00999928
    endloop
  endfacet
  facet normal 0 0 1
    outer loop
      vertex 0.0499992 7.62939e-07 0.00999928
      vertex -0.0499992 0.05 0.00999928
      vertex -0.0499992 7.62939e-07 0.00999928
    endloop
  endfacet
  facet normal 1 -0 0
    outer loop
      vertex 0.0499992 7.62939e-07 0.00999928
      vertex 0.0499992 0.05 -0.00999928
      vertex 0.0499992 0.05 0.00999928
    endloop
  endfacet
  facet normal 1 0 0
    outer loop
      vertex 0.0499992 0.05 -0.00999928
      vertex 0.0499992 7.62939e-07 0.00999928
      vertex 0.0499992 7.62939e-07 -0.00999928
    endloop
  endfacet
  facet normal 0 0 -1
    outer loop
      vertex -0.0499992 7.62939e-07 -0.00999928
      vertex 0.0499992 0.05 -0.00999928
      vertex 0.0499992 7.62939e-07 -0.00999928
    endloop
  endfacet
  facet normal -0 0 -1
    outer loop
      vertex 0.0499992 0.05 -0.00999928
      vertex -0.0499992 7.62939e-07 -0.00999928
      vertex -0.0499992 0.05 -0.00999928
    endloop
  endfacet
  facet normal 0 -1 0
    outer loop
      vertex -0.0499992 7.62939e-07 -0.00999928
      vertex 0.0499992 7.62939e-07 0.00999928
      vertex -0.0499992 7.62939e-07 0.00999928
    endloop
  endfacet
  facet normal 0 -1 -0
    outer loop
      vertex 0.0499992 7.62939e-07 0.00999928
      vertex -0.0499992 7.62939e-07 -0.00999928
      vertex 0.0499992 7.62939e-07 -0.00999928
    endloop
  endfacet
endsolid OpenSCAD_Model
